<svg width="627" height="790" viewBox="0 0 627 790" fill="none" xmlns="http://www.w3.org/2000/svg">
<g clip-path="url(#clip0_2396_15656)">
<path d="M0 16C0 7.16346 7.16344 0 16 0H611C619.837 0 627 7.16344 627 16V774C627 782.837 619.837 790 611 790H16C7.16345 790 0 782.837 0 774V16Z" fill="url(#paint0_linear_2396_15656)"/>
<g filter="url(#filter0_f_2396_15656)">
<ellipse cx="58" cy="496.5" rx="290" ry="270.5" fill="#0B5CFF"/>
</g>
<g filter="url(#filter1_dd_2396_15656)">
<path d="M478.31 586.347C478.31 595.216 474.781 603.725 468.503 609.996C462.225 616.267 453.707 619.792 444.827 619.792H143.483C134.602 619.792 126.086 616.267 119.807 609.996C113.528 603.725 110 595.216 110 586.347V218.446C110 209.575 113.528 201.068 119.807 194.796C126.086 188.524 134.602 185 143.483 185H361.121L478.31 302.059V586.347Z" fill="white"/>
</g>
<g filter="url(#filter2_dd_2396_15656)">
<path d="M496.31 564.347C496.31 573.216 492.781 581.725 486.503 587.996C480.225 594.267 471.707 597.792 462.827 597.792H161.483C152.602 597.792 144.086 594.267 137.807 587.996C131.528 581.725 128 573.216 128 564.347V196.446C128 187.575 131.528 179.068 137.807 172.796C144.086 166.524 152.602 163 161.483 163H379.121L496.31 280.059V564.347Z" fill="white"/>
</g>
<g filter="url(#filter3_dd_2396_15656)">
<path d="M516.31 544.347C516.31 553.216 512.781 561.725 506.503 567.996C500.225 574.267 491.707 577.792 482.827 577.792H181.483C172.602 577.792 164.086 574.267 157.807 567.996C151.528 561.725 148 553.216 148 544.347V176.446C148 167.575 151.528 159.068 157.807 152.796C164.086 146.524 172.602 143 181.483 143H399.121L516.31 260.059V544.347Z" fill="white"/>
</g>
<path d="M195.818 413.633C194.086 413.633 192.533 413.351 191.161 412.789C189.789 412.227 188.687 411.394 187.855 410.292C187.045 409.19 186.617 407.863 186.572 406.311H192.713C192.803 407.188 193.107 407.863 193.624 408.335C194.142 408.785 194.817 409.01 195.649 409.01C196.504 409.01 197.179 408.819 197.673 408.436C198.168 408.032 198.416 407.48 198.416 406.783C198.416 406.198 198.213 405.715 197.808 405.332C197.426 404.95 196.942 404.635 196.358 404.387C195.795 404.14 194.985 403.859 193.928 403.544C192.398 403.072 191.15 402.599 190.183 402.127C189.216 401.654 188.383 400.957 187.686 400.035C186.989 399.113 186.64 397.909 186.64 396.424C186.64 394.22 187.438 392.499 189.036 391.262C190.633 390.002 192.713 389.372 195.278 389.372C197.887 389.372 199.99 390.002 201.587 391.262C203.185 392.499 204.039 394.231 204.152 396.458H197.91C197.865 395.693 197.583 395.097 197.066 394.67C196.549 394.22 195.885 393.995 195.075 393.995C194.378 393.995 193.816 394.186 193.388 394.569C192.961 394.929 192.747 395.457 192.747 396.154C192.747 396.919 193.107 397.515 193.827 397.943C194.547 398.37 195.671 398.831 197.201 399.326C198.731 399.844 199.968 400.338 200.913 400.811C201.88 401.283 202.712 401.969 203.41 402.869C204.107 403.769 204.456 404.927 204.456 406.344C204.456 407.694 204.107 408.92 203.41 410.022C202.735 411.125 201.745 412.002 200.44 412.654C199.136 413.307 197.595 413.633 195.818 413.633ZM206.184 403.949C206.184 402.014 206.544 400.316 207.264 398.854C208.006 397.392 209.007 396.267 210.267 395.48C211.527 394.692 212.933 394.299 214.485 394.299C215.812 394.299 216.97 394.569 217.96 395.109C218.972 395.648 219.748 396.357 220.288 397.234V394.569H226.058V413.396H220.288V410.731C219.726 411.608 218.939 412.317 217.926 412.857C216.937 413.396 215.778 413.666 214.451 413.666C212.921 413.666 211.527 413.273 210.267 412.485C209.007 411.676 208.006 410.54 207.264 409.078C206.544 407.593 206.184 405.883 206.184 403.949ZM220.288 403.983C220.288 402.543 219.883 401.407 219.074 400.575C218.286 399.742 217.319 399.326 216.172 399.326C215.025 399.326 214.046 399.742 213.236 400.575C212.449 401.384 212.055 402.509 212.055 403.949C212.055 405.388 212.449 406.536 213.236 407.39C214.046 408.223 215.025 408.639 216.172 408.639C217.319 408.639 218.286 408.223 219.074 407.39C219.883 406.558 220.288 405.422 220.288 403.983ZM248.79 394.569L236.981 422.338H230.772L235.091 412.755L227.432 394.569H233.876L238.229 406.344L242.548 394.569H248.79ZM263.831 394.299C265.158 394.299 266.316 394.569 267.306 395.109C268.318 395.648 269.094 396.357 269.634 397.234V394.569H275.404V413.363C275.404 415.095 275.055 416.658 274.358 418.053C273.683 419.47 272.637 420.595 271.22 421.427C269.825 422.259 268.082 422.675 265.99 422.675C263.201 422.675 260.94 422.012 259.208 420.685C257.476 419.38 256.486 417.603 256.239 415.354H261.941C262.121 416.073 262.548 416.636 263.223 417.041C263.898 417.468 264.73 417.682 265.72 417.682C266.912 417.682 267.857 417.333 268.554 416.636C269.274 415.961 269.634 414.87 269.634 413.363V410.697C269.072 411.574 268.296 412.294 267.306 412.857C266.316 413.396 265.158 413.666 263.831 413.666C262.278 413.666 260.873 413.273 259.613 412.485C258.353 411.676 257.352 410.54 256.61 409.078C255.89 407.593 255.53 405.883 255.53 403.949C255.53 402.014 255.89 400.316 256.61 398.854C257.352 397.392 258.353 396.267 259.613 395.48C260.873 394.692 262.278 394.299 263.831 394.299ZM269.634 403.983C269.634 402.543 269.229 401.407 268.419 400.575C267.632 399.742 266.665 399.326 265.518 399.326C264.37 399.326 263.392 399.742 262.582 400.575C261.795 401.384 261.401 402.509 261.401 403.949C261.401 405.388 261.795 406.536 262.582 407.39C263.392 408.223 264.37 408.639 265.518 408.639C266.665 408.639 267.632 408.223 268.419 407.39C269.229 406.558 269.634 405.422 269.634 403.983ZM287.474 413.666C285.629 413.666 283.965 413.273 282.48 412.485C281.018 411.698 279.859 410.573 279.005 409.111C278.172 407.649 277.756 405.94 277.756 403.983C277.756 402.048 278.184 400.35 279.038 398.888C279.893 397.403 281.063 396.267 282.547 395.48C284.032 394.692 285.697 394.299 287.541 394.299C289.386 394.299 291.05 394.692 292.535 395.48C294.02 396.267 295.189 397.403 296.044 398.888C296.899 400.35 297.326 402.048 297.326 403.983C297.326 405.917 296.888 407.627 296.01 409.111C295.156 410.573 293.975 411.698 292.467 412.485C290.983 413.273 289.318 413.666 287.474 413.666ZM287.474 408.673C288.576 408.673 289.509 408.268 290.274 407.458C291.062 406.648 291.455 405.49 291.455 403.983C291.455 402.475 291.073 401.317 290.308 400.507C289.566 399.697 288.643 399.292 287.541 399.292C286.416 399.292 285.483 399.697 284.741 400.507C283.998 401.294 283.627 402.453 283.627 403.983C283.627 405.49 283.987 406.648 284.707 407.458C285.449 408.268 286.371 408.673 287.474 408.673ZM308.283 413.666C306.438 413.666 304.774 413.273 303.289 412.485C301.827 411.698 300.668 410.573 299.814 409.111C298.981 407.649 298.565 405.94 298.565 403.983C298.565 402.048 298.993 400.35 299.847 398.888C300.702 397.403 301.872 396.267 303.357 395.48C304.841 394.692 306.506 394.299 308.35 394.299C310.195 394.299 311.859 394.692 313.344 395.48C314.829 396.267 315.998 397.403 316.853 398.888C317.708 400.35 318.135 402.048 318.135 403.983C318.135 405.917 317.697 407.627 316.819 409.111C315.965 410.573 314.784 411.698 313.277 412.485C311.792 413.273 310.127 413.666 308.283 413.666ZM308.283 408.673C309.385 408.673 310.319 408.268 311.083 407.458C311.871 406.648 312.264 405.49 312.264 403.983C312.264 402.475 311.882 401.317 311.117 400.507C310.375 399.697 309.453 399.292 308.35 399.292C307.226 399.292 306.292 399.697 305.55 400.507C304.807 401.294 304.436 402.453 304.436 403.983C304.436 405.49 304.796 406.648 305.516 407.458C306.258 408.268 307.181 408.673 308.283 408.673ZM319.374 403.949C319.374 402.014 319.734 400.316 320.454 398.854C321.196 397.392 322.197 396.267 323.457 395.48C324.717 394.692 326.123 394.299 327.675 394.299C328.912 394.299 330.037 394.557 331.049 395.075C332.084 395.592 332.894 396.289 333.478 397.167V388.428H339.248V413.396H333.478V410.697C332.938 411.597 332.162 412.317 331.15 412.857C330.16 413.396 329.002 413.666 327.675 413.666C326.123 413.666 324.717 413.273 323.457 412.485C322.197 411.676 321.196 410.54 320.454 409.078C319.734 407.593 319.374 405.883 319.374 403.949ZM333.478 403.983C333.478 402.543 333.073 401.407 332.264 400.575C331.476 399.742 330.509 399.326 329.362 399.326C328.215 399.326 327.236 399.742 326.426 400.575C325.639 401.384 325.245 402.509 325.245 403.949C325.245 405.388 325.639 406.536 326.426 407.39C327.236 408.223 328.215 408.639 329.362 408.639C330.509 408.639 331.476 408.223 332.264 407.39C333.073 406.558 333.478 405.422 333.478 403.983ZM348.517 397.234C349.057 396.357 349.833 395.648 350.846 395.109C351.858 394.569 353.016 394.299 354.321 394.299C355.873 394.299 357.279 394.692 358.539 395.48C359.798 396.267 360.788 397.392 361.508 398.854C362.25 400.316 362.621 402.014 362.621 403.949C362.621 405.883 362.25 407.593 361.508 409.078C360.788 410.54 359.798 411.676 358.539 412.485C357.279 413.273 355.873 413.666 354.321 413.666C352.994 413.666 351.835 413.408 350.846 412.89C349.856 412.35 349.08 411.642 348.517 410.765V413.396H342.748V388.428H348.517V397.234ZM356.75 403.949C356.75 402.509 356.345 401.384 355.536 400.575C354.748 399.742 353.77 399.326 352.6 399.326C351.453 399.326 350.474 399.742 349.665 400.575C348.877 401.407 348.484 402.543 348.484 403.983C348.484 405.422 348.877 406.558 349.665 407.39C350.474 408.223 351.453 408.639 352.6 408.639C353.747 408.639 354.726 408.223 355.536 407.39C356.345 406.536 356.75 405.388 356.75 403.949ZM384.206 394.569L372.397 422.338H366.188L370.507 412.755L362.848 394.569H369.293L373.645 406.344L377.964 394.569H384.206ZM403.366 403.679C403.366 404.219 403.332 404.781 403.265 405.366H390.207C390.297 406.536 390.668 407.435 391.32 408.065C391.995 408.673 392.816 408.976 393.783 408.976C395.223 408.976 396.224 408.369 396.786 407.154H402.927C402.612 408.391 402.039 409.505 401.207 410.495C400.397 411.484 399.373 412.261 398.136 412.823C396.899 413.385 395.515 413.666 393.986 413.666C392.141 413.666 390.499 413.273 389.06 412.485C387.62 411.698 386.495 410.573 385.685 409.111C384.876 407.649 384.471 405.94 384.471 403.983C384.471 402.026 384.864 400.316 385.652 398.854C386.461 397.392 387.586 396.267 389.026 395.48C390.465 394.692 392.119 394.299 393.986 394.299C395.808 394.299 397.428 394.681 398.845 395.446C400.262 396.211 401.364 397.302 402.151 398.719C402.961 400.136 403.366 401.789 403.366 403.679ZM397.461 402.161C397.461 401.171 397.124 400.383 396.449 399.799C395.774 399.214 394.931 398.921 393.918 398.921C392.951 398.921 392.13 399.202 391.455 399.765C390.803 400.327 390.398 401.126 390.241 402.161H397.461ZM422.704 408.504V413.396H419.769C417.677 413.396 416.046 412.89 414.876 411.878C413.706 410.843 413.122 409.168 413.122 406.851V399.36H410.827V394.569H413.122V389.98H418.891V394.569H422.67V399.36H418.891V406.918C418.891 407.48 419.026 407.885 419.296 408.133C419.566 408.38 420.016 408.504 420.646 408.504H422.704ZM433.814 413.666C431.969 413.666 430.305 413.273 428.82 412.485C427.358 411.698 426.199 410.573 425.345 409.111C424.512 407.649 424.096 405.94 424.096 403.983C424.096 402.048 424.523 400.35 425.378 398.888C426.233 397.403 427.403 396.267 428.887 395.48C430.372 394.692 432.037 394.299 433.881 394.299C435.726 394.299 437.39 394.692 438.875 395.48C440.36 396.267 441.529 397.403 442.384 398.888C443.239 400.35 443.666 402.048 443.666 403.983C443.666 405.917 443.228 407.627 442.35 409.111C441.496 410.573 440.315 411.698 438.807 412.485C437.323 413.273 435.658 413.666 433.814 413.666ZM433.814 408.673C434.916 408.673 435.849 408.268 436.614 407.458C437.402 406.648 437.795 405.49 437.795 403.983C437.795 402.475 437.413 401.317 436.648 400.507C435.906 399.697 434.983 399.292 433.881 399.292C432.756 399.292 431.823 399.697 431.081 400.507C430.338 401.294 429.967 402.453 429.967 403.983C429.967 405.49 430.327 406.648 431.047 407.458C431.789 408.268 432.711 408.673 433.814 408.673ZM211.271 434.366C213.611 434.366 215.467 435.075 216.839 436.492C218.233 437.909 218.931 439.877 218.931 442.397V453.396H213.195V443.173C213.195 441.958 212.868 441.025 212.216 440.372C211.586 439.697 210.709 439.36 209.584 439.36C208.46 439.36 207.571 439.697 206.919 440.372C206.289 441.025 205.974 441.958 205.974 443.173V453.396H200.238V443.173C200.238 441.958 199.912 441.025 199.259 440.372C198.629 439.697 197.752 439.36 196.627 439.36C195.503 439.36 194.614 439.697 193.962 440.372C193.332 441.025 193.017 441.958 193.017 443.173V453.396H187.247V434.569H193.017V436.931C193.602 436.143 194.367 435.525 195.312 435.075C196.256 434.602 197.325 434.366 198.517 434.366C199.934 434.366 201.194 434.67 202.296 435.277C203.421 435.885 204.298 436.751 204.928 437.875C205.58 436.841 206.469 435.997 207.593 435.345C208.718 434.692 209.944 434.366 211.271 434.366ZM221.144 443.949C221.144 442.014 221.504 440.316 222.224 438.854C222.966 437.392 223.967 436.267 225.227 435.48C226.486 434.692 227.892 434.299 229.444 434.299C230.772 434.299 231.93 434.569 232.92 435.109C233.932 435.648 234.708 436.357 235.248 437.234V434.569H241.018V453.396H235.248V450.731C234.686 451.608 233.898 452.317 232.886 452.857C231.896 453.396 230.738 453.666 229.411 453.666C227.881 453.666 226.486 453.273 225.227 452.485C223.967 451.676 222.966 450.54 222.224 449.078C221.504 447.593 221.144 445.883 221.144 443.949ZM235.248 443.983C235.248 442.543 234.843 441.407 234.033 440.575C233.246 439.742 232.279 439.326 231.131 439.326C229.984 439.326 229.006 439.742 228.196 440.575C227.409 441.384 227.015 442.509 227.015 443.949C227.015 445.388 227.409 446.536 228.196 447.39C229.006 448.223 229.984 448.639 231.131 448.639C232.279 448.639 233.246 448.223 234.033 447.39C234.843 446.558 235.248 445.422 235.248 443.983ZM255.989 434.366C258.194 434.366 259.948 435.086 261.253 436.526C262.58 437.943 263.244 439.9 263.244 442.397V453.396H257.508V443.173C257.508 441.913 257.182 440.935 256.529 440.237C255.877 439.54 255 439.191 253.897 439.191C252.795 439.191 251.918 439.54 251.265 440.237C250.613 440.935 250.287 441.913 250.287 443.173V453.396H244.517V434.569H250.287V437.066C250.872 436.233 251.659 435.581 252.649 435.109C253.639 434.614 254.752 434.366 255.989 434.366ZM285.17 434.569V453.396H279.4V450.832C278.815 451.664 278.017 452.339 277.005 452.857C276.015 453.351 274.913 453.599 273.698 453.599C272.258 453.599 270.987 453.284 269.885 452.654C268.783 452.002 267.928 451.068 267.321 449.854C266.713 448.639 266.41 447.211 266.41 445.568V434.569H272.146V444.792C272.146 446.052 272.472 447.031 273.124 447.728C273.777 448.425 274.654 448.774 275.756 448.774C276.881 448.774 277.769 448.425 278.422 447.728C279.074 447.031 279.4 446.052 279.4 444.792V434.569H285.17ZM287.492 443.949C287.492 442.014 287.852 440.316 288.572 438.854C289.314 437.392 290.315 436.267 291.575 435.48C292.835 434.692 294.241 434.299 295.793 434.299C297.12 434.299 298.279 434.569 299.268 435.109C300.281 435.648 301.057 436.357 301.596 437.234V434.569H307.366V453.396H301.596V450.731C301.034 451.608 300.247 452.317 299.235 452.857C298.245 453.396 297.086 453.666 295.759 453.666C294.23 453.666 292.835 453.273 291.575 452.485C290.315 451.676 289.314 450.54 288.572 449.078C287.852 447.593 287.492 445.883 287.492 443.949ZM301.596 443.983C301.596 442.543 301.192 441.407 300.382 440.575C299.594 439.742 298.627 439.326 297.48 439.326C296.333 439.326 295.354 439.742 294.544 440.575C293.757 441.384 293.363 442.509 293.363 443.949C293.363 445.388 293.757 446.536 294.544 447.39C295.354 448.223 296.333 448.639 297.48 448.639C298.627 448.639 299.594 448.223 300.382 447.39C301.192 446.558 301.596 445.422 301.596 443.983ZM316.635 428.428V453.396H310.866V428.428H316.635ZM325.47 443.983C325.47 442.026 325.864 440.316 326.651 438.854C327.461 437.392 328.574 436.267 329.992 435.48C331.431 434.692 333.073 434.299 334.918 434.299C337.28 434.299 339.248 434.917 340.823 436.154C342.42 437.392 343.466 439.135 343.961 441.384H337.82C337.302 439.945 336.301 439.225 334.817 439.225C333.759 439.225 332.916 439.641 332.286 440.473C331.656 441.283 331.341 442.453 331.341 443.983C331.341 445.512 331.656 446.693 332.286 447.525C332.916 448.335 333.759 448.74 334.817 448.74C336.301 448.74 337.302 448.02 337.82 446.581H343.961C343.466 448.785 342.42 450.517 340.823 451.777C339.226 453.037 337.257 453.666 334.918 453.666C333.073 453.666 331.431 453.273 329.992 452.485C328.574 451.698 327.461 450.573 326.651 449.111C325.864 447.649 325.47 445.94 325.47 443.983ZM354.943 453.666C353.098 453.666 351.433 453.273 349.949 452.485C348.487 451.698 347.328 450.573 346.473 449.111C345.641 447.649 345.225 445.94 345.225 443.983C345.225 442.048 345.652 440.35 346.507 438.888C347.362 437.403 348.532 436.267 350.016 435.48C351.501 434.692 353.165 434.299 355.01 434.299C356.855 434.299 358.519 434.692 360.004 435.48C361.488 436.267 362.658 437.403 363.513 438.888C364.368 440.35 364.795 442.048 364.795 443.983C364.795 445.917 364.356 447.627 363.479 449.111C362.624 450.573 361.443 451.698 359.936 452.485C358.452 453.273 356.787 453.666 354.943 453.666ZM354.943 448.673C356.045 448.673 356.978 448.268 357.743 447.458C358.53 446.648 358.924 445.49 358.924 443.983C358.924 442.475 358.542 441.317 357.777 440.507C357.035 439.697 356.112 439.292 355.01 439.292C353.885 439.292 352.952 439.697 352.209 440.507C351.467 441.294 351.096 442.453 351.096 443.983C351.096 445.49 351.456 446.648 352.176 447.458C352.918 448.268 353.84 448.673 354.943 448.673ZM378.653 434.366C380.858 434.366 382.612 435.086 383.917 436.526C385.244 437.943 385.908 439.9 385.908 442.397V453.396H380.172V443.173C380.172 441.913 379.846 440.935 379.193 440.237C378.541 439.54 377.664 439.191 376.561 439.191C375.459 439.191 374.582 439.54 373.93 440.237C373.277 440.935 372.951 441.913 372.951 443.173V453.396H367.181V434.569H372.951V437.066C373.536 436.233 374.323 435.581 375.313 435.109C376.303 434.614 377.416 434.366 378.653 434.366ZM399.736 448.504V453.396H396.801C394.709 453.396 393.078 452.89 391.908 451.878C390.738 450.843 390.154 449.168 390.154 446.851V439.36H387.859V434.569H390.154V429.98H395.923V434.569H399.702V439.36H395.923V446.918C395.923 447.48 396.058 447.885 396.328 448.133C396.598 448.38 397.048 448.504 397.678 448.504H399.736ZM408.045 437.707C408.72 436.672 409.563 435.862 410.576 435.277C411.588 434.67 412.713 434.366 413.95 434.366V440.473H412.364C410.924 440.473 409.845 440.788 409.125 441.418C408.405 442.026 408.045 443.105 408.045 444.657V453.396H402.275V434.569H408.045V437.707ZM414.886 443.949C414.886 442.014 415.246 440.316 415.965 438.854C416.708 437.392 417.709 436.267 418.968 435.48C420.228 434.692 421.634 434.299 423.186 434.299C424.513 434.299 425.672 434.569 426.661 435.109C427.674 435.648 428.45 436.357 428.99 437.234V434.569H434.759V453.396H428.99V450.731C428.427 451.608 427.64 452.317 426.628 452.857C425.638 453.396 424.48 453.666 423.152 453.666C421.623 453.666 420.228 453.273 418.968 452.485C417.709 451.676 416.708 450.54 415.965 449.078C415.246 447.593 414.886 445.883 414.886 443.949ZM428.99 443.983C428.99 442.543 428.585 441.407 427.775 440.575C426.988 439.742 426.02 439.326 424.873 439.326C423.726 439.326 422.747 439.742 421.938 440.575C421.15 441.384 420.757 442.509 420.757 443.949C420.757 445.388 421.15 446.536 421.938 447.39C422.747 448.223 423.726 448.639 424.873 448.639C426.02 448.639 426.988 448.223 427.775 447.39C428.585 446.558 428.99 445.422 428.99 443.983ZM437.112 443.983C437.112 442.026 437.505 440.316 438.293 438.854C439.102 437.392 440.216 436.267 441.633 435.48C443.073 434.692 444.715 434.299 446.559 434.299C448.921 434.299 450.89 434.917 452.464 436.154C454.061 437.392 455.107 439.135 455.602 441.384H449.461C448.944 439.945 447.943 439.225 446.458 439.225C445.401 439.225 444.557 439.641 443.927 440.473C443.298 441.283 442.983 442.453 442.983 443.983C442.983 445.512 443.298 446.693 443.927 447.525C444.557 448.335 445.401 448.74 446.458 448.74C447.943 448.74 448.944 448.02 449.461 446.581H455.602C455.107 448.785 454.061 450.517 452.464 451.777C450.867 453.037 448.899 453.666 446.559 453.666C444.715 453.666 443.073 453.273 441.633 452.485C440.216 451.698 439.102 450.573 438.293 449.111C437.505 447.649 437.112 445.94 437.112 443.983ZM468.507 448.504V453.396H465.572C463.48 453.396 461.849 452.89 460.679 451.878C459.509 450.843 458.925 449.168 458.925 446.851V439.36H456.63V434.569H458.925V429.98H464.694V434.569H468.473V439.36H464.694V446.918C464.694 447.48 464.829 447.885 465.099 448.133C465.369 448.38 465.819 448.504 466.449 448.504H468.507ZM198.821 474.366C200.98 474.366 202.712 475.086 204.017 476.526C205.322 477.943 205.974 479.9 205.974 482.397V493.396H200.238V483.173C200.238 481.913 199.912 480.935 199.259 480.237C198.607 479.54 197.73 479.191 196.627 479.191C195.525 479.191 194.648 479.54 193.996 480.237C193.343 480.935 193.017 481.913 193.017 483.173V493.396H187.247V468.428H193.017V477.099C193.602 476.267 194.4 475.603 195.413 475.109C196.425 474.614 197.561 474.366 198.821 474.366ZM208.161 483.949C208.161 482.014 208.521 480.316 209.241 478.854C209.983 477.392 210.984 476.267 212.244 475.48C213.504 474.692 214.91 474.299 216.462 474.299C217.789 474.299 218.947 474.569 219.937 475.109C220.949 475.648 221.725 476.357 222.265 477.234V474.569H228.035V493.396H222.265V490.731C221.703 491.608 220.916 492.317 219.903 492.857C218.914 493.396 217.755 493.666 216.428 493.666C214.898 493.666 213.504 493.273 212.244 492.485C210.984 491.676 209.983 490.54 209.241 489.078C208.521 487.593 208.161 485.883 208.161 483.949ZM222.265 483.983C222.265 482.543 221.86 481.407 221.051 480.575C220.263 479.742 219.296 479.326 218.149 479.326C217.002 479.326 216.023 479.742 215.213 480.575C214.426 481.384 214.032 482.509 214.032 483.949C214.032 485.388 214.426 486.536 215.213 487.39C216.023 488.223 217.002 488.639 218.149 488.639C219.296 488.639 220.263 488.223 221.051 487.39C221.86 486.558 222.265 485.422 222.265 483.983ZM239.194 493.666C237.552 493.666 236.09 493.385 234.807 492.823C233.525 492.261 232.513 491.496 231.771 490.528C231.028 489.539 230.612 488.436 230.522 487.222H236.225C236.292 487.874 236.596 488.403 237.136 488.808C237.675 489.213 238.339 489.415 239.126 489.415C239.846 489.415 240.397 489.28 240.78 489.01C241.185 488.718 241.387 488.346 241.387 487.897C241.387 487.357 241.106 486.963 240.544 486.716C239.981 486.446 239.07 486.153 237.81 485.838C236.461 485.523 235.336 485.197 234.436 484.86C233.537 484.5 232.76 483.949 232.108 483.207C231.456 482.442 231.13 481.418 231.13 480.136C231.13 479.056 231.422 478.078 232.007 477.2C232.614 476.301 233.492 475.592 234.639 475.075C235.808 474.557 237.192 474.299 238.789 474.299C241.151 474.299 243.007 474.884 244.356 476.053C245.729 477.223 246.516 478.775 246.718 480.71H241.387C241.297 480.057 241.005 479.54 240.51 479.158C240.037 478.775 239.408 478.584 238.62 478.584C237.945 478.584 237.428 478.719 237.068 478.989C236.708 479.236 236.528 479.585 236.528 480.035C236.528 480.575 236.809 480.98 237.372 481.249C237.957 481.519 238.856 481.789 240.071 482.059C241.466 482.419 242.602 482.779 243.479 483.139C244.356 483.476 245.121 484.039 245.773 484.826C246.448 485.591 246.797 486.626 246.819 487.93C246.819 489.033 246.505 490.022 245.875 490.9C245.267 491.754 244.379 492.429 243.209 492.924C242.062 493.419 240.723 493.666 239.194 493.666ZM257.334 493.666C255.692 493.666 254.23 493.385 252.948 492.823C251.665 492.261 250.653 491.496 249.911 490.528C249.168 489.539 248.752 488.436 248.662 487.222H254.365C254.432 487.874 254.736 488.403 255.276 488.808C255.816 489.213 256.479 489.415 257.266 489.415C257.986 489.415 258.537 489.28 258.92 489.01C259.325 488.718 259.527 488.346 259.527 487.897C259.527 487.357 259.246 486.963 258.684 486.716C258.121 486.446 257.21 486.153 255.951 485.838C254.601 485.523 253.476 485.197 252.576 484.86C251.677 484.5 250.901 483.949 250.248 483.207C249.596 482.442 249.27 481.418 249.27 480.136C249.27 479.056 249.562 478.078 250.147 477.2C250.754 476.301 251.632 475.592 252.779 475.075C253.949 474.557 255.332 474.299 256.929 474.299C259.291 474.299 261.147 474.884 262.496 476.053C263.869 477.223 264.656 478.775 264.858 480.71H259.527C259.437 480.057 259.145 479.54 258.65 479.158C258.178 478.775 257.548 478.584 256.76 478.584C256.086 478.584 255.568 478.719 255.208 478.989C254.848 479.236 254.668 479.585 254.668 480.035C254.668 480.575 254.95 480.98 255.512 481.249C256.097 481.519 256.997 481.789 258.211 482.059C259.606 482.419 260.742 482.779 261.619 483.139C262.496 483.476 263.261 484.039 263.914 484.826C264.588 485.591 264.937 486.626 264.96 487.93C264.96 489.033 264.645 490.022 264.015 490.9C263.407 491.754 262.519 492.429 261.349 492.924C260.202 493.419 258.864 493.666 257.334 493.666ZM273.585 468.428V493.396H267.815V468.428H273.585ZM294.839 483.679C294.839 484.219 294.805 484.781 294.738 485.366H281.68C281.77 486.536 282.141 487.435 282.793 488.065C283.468 488.673 284.289 488.976 285.257 488.976C286.696 488.976 287.697 488.369 288.26 487.154H294.401C294.086 488.391 293.512 489.505 292.68 490.495C291.87 491.484 290.846 492.261 289.609 492.823C288.372 493.385 286.989 493.666 285.459 493.666C283.614 493.666 281.972 493.273 280.533 492.485C279.093 491.698 277.968 490.573 277.159 489.111C276.349 487.649 275.944 485.94 275.944 483.983C275.944 482.026 276.337 480.316 277.125 478.854C277.935 477.392 279.059 476.267 280.499 475.48C281.939 474.692 283.592 474.299 285.459 474.299C287.281 474.299 288.901 474.681 290.318 475.446C291.735 476.211 292.837 477.302 293.624 478.719C294.434 480.136 294.839 481.789 294.839 483.679ZM288.934 482.161C288.934 481.171 288.597 480.383 287.922 479.799C287.247 479.214 286.404 478.921 285.391 478.921C284.424 478.921 283.603 479.202 282.928 479.765C282.276 480.327 281.871 481.126 281.714 482.161H288.934ZM304.868 493.666C303.225 493.666 301.763 493.385 300.481 492.823C299.199 492.261 298.187 491.496 297.444 490.528C296.702 489.539 296.286 488.436 296.196 487.222H301.898C301.966 487.874 302.269 488.403 302.809 488.808C303.349 489.213 304.013 489.415 304.8 489.415C305.52 489.415 306.071 489.28 306.453 489.01C306.858 488.718 307.061 488.346 307.061 487.897C307.061 487.357 306.78 486.963 306.217 486.716C305.655 486.446 304.744 486.153 303.484 485.838C302.134 485.523 301.01 485.197 300.11 484.86C299.21 484.5 298.434 483.949 297.782 483.207C297.129 482.442 296.803 481.418 296.803 480.136C296.803 479.056 297.096 478.078 297.681 477.2C298.288 476.301 299.165 475.592 300.312 475.075C301.482 474.557 302.866 474.299 304.463 474.299C306.825 474.299 308.68 474.884 310.03 476.053C311.402 477.223 312.189 478.775 312.392 480.71H307.061C306.971 480.057 306.678 479.54 306.183 479.158C305.711 478.775 305.081 478.584 304.294 478.584C303.619 478.584 303.102 478.719 302.742 478.989C302.382 479.236 302.202 479.585 302.202 480.035C302.202 480.575 302.483 480.98 303.045 481.249C303.63 481.519 304.53 481.789 305.745 482.059C307.139 482.419 308.275 482.779 309.153 483.139C310.03 483.476 310.795 484.039 311.447 484.826C312.122 485.591 312.471 486.626 312.493 487.93C312.493 489.033 312.178 490.022 311.548 490.9C310.941 491.754 310.053 492.429 308.883 492.924C307.736 493.419 306.397 493.666 304.868 493.666Z" fill="#322F32"/>
<path fill-rule="evenodd" clip-rule="evenodd" d="M197.834 190.559C198.268 190.002 198.824 189.551 199.46 189.241C200.095 188.931 200.792 188.77 201.499 188.77C202.206 188.77 202.904 188.931 203.539 189.241C204.174 189.551 204.73 190.002 205.165 190.559C205.853 191.437 206.33 192.339 206.714 193.068L206.925 193.46C207.362 194.269 207.795 194.969 208.531 195.71C209.271 196.446 209.975 196.879 210.785 197.316L211.177 197.526C211.905 197.911 212.803 198.388 213.681 199.076C216.068 200.953 216.068 204.53 213.681 206.407C212.803 207.095 211.901 207.572 211.177 207.957L210.785 208.167C209.975 208.604 209.271 209.037 208.531 209.773C207.884 210.437 207.342 211.196 206.925 212.023L206.714 212.419C206.33 213.148 205.853 214.046 205.165 214.924C203.287 217.311 199.711 217.311 197.834 214.924C197.146 214.046 196.668 213.144 196.284 212.419C196.214 212.287 196.144 212.155 196.074 212.023C195.657 211.195 195.116 210.436 194.467 209.773C193.805 209.125 193.046 208.583 192.218 208.167L191.821 207.957C190.942 207.519 190.105 207 189.321 206.407C188.764 205.972 188.313 205.416 188.003 204.781C187.692 204.146 187.531 203.448 187.531 202.741C187.531 202.035 187.692 201.337 188.003 200.702C188.313 200.067 188.764 199.511 189.321 199.076C190.195 198.388 191.093 197.911 191.821 197.526L192.218 197.316C193.027 196.879 193.727 196.446 194.467 195.71C195.204 194.969 195.637 194.265 196.074 193.46L196.284 193.064C196.668 192.335 197.146 191.437 197.834 190.559ZM219.843 208.592C220.388 207.891 221.086 207.324 221.883 206.934C222.68 206.544 223.556 206.341 224.444 206.341C225.331 206.341 226.207 206.544 227.004 206.934C227.802 207.324 228.499 207.891 229.044 208.592C229.982 209.789 230.63 211.011 231.188 212.071L231.508 212.662C232.159 213.868 232.835 214.976 233.996 216.133C235.153 217.295 236.262 217.97 237.463 218.622L238.062 218.937C239.114 219.5 240.34 220.147 241.533 221.086C242.234 221.63 242.801 222.328 243.192 223.125C243.582 223.922 243.784 224.798 243.784 225.686C243.784 226.573 243.582 227.449 243.192 228.247C242.801 229.044 242.234 229.741 241.533 230.286C240.445 231.106 239.283 231.824 238.062 232.43L237.463 232.75C236.185 233.395 235.014 234.233 233.992 235.234C232.99 236.257 232.152 237.428 231.508 238.706L231.188 239.3C230.582 240.524 229.864 241.688 229.044 242.78C228.499 243.481 227.802 244.048 227.004 244.438C226.207 244.828 225.331 245.031 224.444 245.031C223.556 245.031 222.68 244.828 221.883 244.438C221.086 244.048 220.388 243.481 219.843 242.78C219.023 241.689 218.305 240.524 217.699 239.3L217.375 238.706C216.731 237.428 215.893 236.257 214.891 235.234C213.869 234.233 212.698 233.395 211.42 232.75C211.223 232.644 211.026 232.539 210.829 232.434C209.606 231.827 208.441 231.108 207.35 230.286C206.649 229.741 206.082 229.044 205.691 228.247C205.301 227.449 205.099 226.573 205.099 225.686C205.099 224.798 205.301 223.922 205.691 223.125C206.082 222.328 206.649 221.63 207.35 221.086C208.547 220.147 209.769 219.5 210.829 218.941L211.42 218.618C212.698 217.973 213.869 217.135 214.891 216.133C215.894 215.111 216.733 213.94 217.379 212.662L217.695 212.067C218.257 211.015 218.905 209.789 219.843 208.592Z" fill="#0B5CFF"/>
</g>
<defs>
<filter id="filter0_f_2396_15656" x="-482" y="-24" width="1080" height="1041" filterUnits="userSpaceOnUse" color-interpolation-filters="sRGB">
<feFlood flood-opacity="0" result="BackgroundImageFix"/>
<feBlend mode="normal" in="SourceGraphic" in2="BackgroundImageFix" result="shape"/>
<feGaussianBlur stdDeviation="125" result="effect1_foregroundBlur_2396_15656"/>
</filter>
<filter id="filter1_dd_2396_15656" x="78" y="153" width="790.31" height="856.793" filterUnits="userSpaceOnUse" color-interpolation-filters="sRGB">
<feFlood flood-opacity="0" result="BackgroundImageFix"/>
<feColorMatrix in="SourceAlpha" type="matrix" values="0 0 0 0 0 0 0 0 0 0 0 0 0 0 0 0 0 0 127 0" result="hardAlpha"/>
<feOffset dx="16" dy="16"/>
<feGaussianBlur stdDeviation="24"/>
<feColorMatrix type="matrix" values="0 0 0 0 0.0509804 0 0 0 0 0.278431 0 0 0 0 0.729412 0 0 0 0.1 0"/>
<feBlend mode="normal" in2="BackgroundImageFix" result="effect1_dropShadow_2396_15656"/>
<feColorMatrix in="SourceAlpha" type="matrix" values="0 0 0 0 0 0 0 0 0 0 0 0 0 0 0 0 0 0 127 0" result="hardAlpha"/>
<feOffset dx="249" dy="249"/>
<feGaussianBlur stdDeviation="70.5"/>
<feColorMatrix type="matrix" values="0 0 0 0 0.0509804 0 0 0 0 0.278431 0 0 0 0 0.729412 0 0 0 0.01 0"/>
<feBlend mode="normal" in2="effect1_dropShadow_2396_15656" result="effect2_dropShadow_2396_15656"/>
<feBlend mode="normal" in="SourceGraphic" in2="effect2_dropShadow_2396_15656" result="shape"/>
</filter>
<filter id="filter2_dd_2396_15656" x="96" y="131" width="790.31" height="856.793" filterUnits="userSpaceOnUse" color-interpolation-filters="sRGB">
<feFlood flood-opacity="0" result="BackgroundImageFix"/>
<feColorMatrix in="SourceAlpha" type="matrix" values="0 0 0 0 0 0 0 0 0 0 0 0 0 0 0 0 0 0 127 0" result="hardAlpha"/>
<feOffset dx="16" dy="16"/>
<feGaussianBlur stdDeviation="24"/>
<feColorMatrix type="matrix" values="0 0 0 0 0.0509804 0 0 0 0 0.278431 0 0 0 0 0.729412 0 0 0 0.1 0"/>
<feBlend mode="normal" in2="BackgroundImageFix" result="effect1_dropShadow_2396_15656"/>
<feColorMatrix in="SourceAlpha" type="matrix" values="0 0 0 0 0 0 0 0 0 0 0 0 0 0 0 0 0 0 127 0" result="hardAlpha"/>
<feOffset dx="249" dy="249"/>
<feGaussianBlur stdDeviation="70.5"/>
<feColorMatrix type="matrix" values="0 0 0 0 0.0509804 0 0 0 0 0.278431 0 0 0 0 0.729412 0 0 0 0.01 0"/>
<feBlend mode="normal" in2="effect1_dropShadow_2396_15656" result="effect2_dropShadow_2396_15656"/>
<feBlend mode="normal" in="SourceGraphic" in2="effect2_dropShadow_2396_15656" result="shape"/>
</filter>
<filter id="filter3_dd_2396_15656" x="116" y="111" width="790.31" height="856.793" filterUnits="userSpaceOnUse" color-interpolation-filters="sRGB">
<feFlood flood-opacity="0" result="BackgroundImageFix"/>
<feColorMatrix in="SourceAlpha" type="matrix" values="0 0 0 0 0 0 0 0 0 0 0 0 0 0 0 0 0 0 127 0" result="hardAlpha"/>
<feOffset dx="16" dy="16"/>
<feGaussianBlur stdDeviation="24"/>
<feColorMatrix type="matrix" values="0 0 0 0 0.0509804 0 0 0 0 0.278431 0 0 0 0 0.729412 0 0 0 0.1 0"/>
<feBlend mode="normal" in2="BackgroundImageFix" result="effect1_dropShadow_2396_15656"/>
<feColorMatrix in="SourceAlpha" type="matrix" values="0 0 0 0 0 0 0 0 0 0 0 0 0 0 0 0 0 0 127 0" result="hardAlpha"/>
<feOffset dx="249" dy="249"/>
<feGaussianBlur stdDeviation="70.5"/>
<feColorMatrix type="matrix" values="0 0 0 0 0.0509804 0 0 0 0 0.278431 0 0 0 0 0.729412 0 0 0 0.01 0"/>
<feBlend mode="normal" in2="effect1_dropShadow_2396_15656" result="effect2_dropShadow_2396_15656"/>
<feBlend mode="normal" in="SourceGraphic" in2="effect2_dropShadow_2396_15656" result="shape"/>
</filter>
<linearGradient id="paint0_linear_2396_15656" x1="-3.02173e-06" y1="27.8651" x2="621.404" y2="809.038" gradientUnits="userSpaceOnUse">
<stop stop-color="#F2FAFF"/>
<stop offset="0.354294" stop-color="#E1FFF6"/>
<stop offset="0.904091" stop-color="#FFF4FE"/>
</linearGradient>
<clipPath id="clip0_2396_15656">
<path d="M0 16C0 7.16346 7.16344 0 16 0H611C619.837 0 627 7.16344 627 16V774C627 782.837 619.837 790 611 790H16C7.16345 790 0 782.837 0 774V16Z" fill="white"/>
</clipPath>
</defs>
</svg>
