<svg width="45" height="46" viewBox="0 0 45 46" fill="none" xmlns="http://www.w3.org/2000/svg">
<path fill-rule="evenodd" clip-rule="evenodd" d="M8.47586 2.27546C8.81794 1.83688 9.25553 1.48209 9.75535 1.23806C10.2552 0.994026 10.8041 0.867188 11.3603 0.867188C11.9165 0.867188 12.4654 0.994026 12.9652 1.23806C13.465 1.48209 13.9026 1.83688 14.2447 2.27546C14.7859 2.96632 15.1616 3.67628 15.464 4.24934L15.6296 4.55816C15.9734 5.19489 16.3141 5.74567 16.8935 6.32828C17.4761 6.90771 18.0301 7.24836 18.6668 7.5922L18.9756 7.75775C19.5487 8.06019 20.2555 8.43587 20.9463 8.97709C22.8247 10.4543 22.8247 13.2687 20.9463 14.7459C20.2555 15.2871 19.5455 15.6628 18.9756 15.9653L18.6668 16.1308C18.0301 16.4746 17.4761 16.8153 16.8935 17.3947C16.3845 17.917 15.9583 18.5139 15.6296 19.1648L15.464 19.4768C15.1616 20.0499 14.7859 20.7567 14.2447 21.4475C12.7675 23.3259 9.95309 23.3259 8.47586 21.4475C7.93464 20.7567 7.55896 20.0467 7.25652 19.4768C7.20182 19.3726 7.14663 19.2686 7.09096 19.1648C6.76347 18.5132 6.33712 17.916 5.82705 17.3947C5.30569 16.8847 4.70859 16.4583 4.05692 16.1308L3.74492 15.9653C3.05275 15.6206 2.39408 15.2124 1.77741 14.7459C1.33884 14.4038 0.984039 13.9662 0.740009 13.4664C0.495979 12.9666 0.369141 12.4177 0.369141 11.8615C0.369141 11.3053 0.495979 10.7564 0.740009 10.2566C0.984039 9.75676 1.33884 9.31917 1.77741 8.97709C2.46509 8.43587 3.17186 8.06019 3.74492 7.75775L4.05692 7.5922C4.69366 7.24836 5.24443 6.90771 5.82705 6.32828C6.40647 5.74567 6.74713 5.19171 7.09096 4.55816L7.25652 4.24616C7.55896 3.67309 7.93464 2.96632 8.47586 2.27546ZM25.795 16.4651C26.2236 15.9136 26.7725 15.4674 27.3999 15.1604C28.0273 14.8534 28.7164 14.6938 29.4149 14.6938C30.1133 14.6938 30.8025 14.8534 31.4299 15.1604C32.0572 15.4674 32.6061 15.9136 33.0347 16.4651C33.7733 17.4075 34.2827 18.3689 34.7221 19.2031L34.9736 19.6679C35.4861 20.6166 36.0178 21.4889 36.9315 22.3995C37.8421 23.3132 38.7144 23.8448 39.6599 24.3574L40.1311 24.6057C40.9589 25.0483 41.9235 25.5577 42.8627 26.2963C43.4142 26.7249 43.8604 27.2738 44.1674 27.9011C44.4744 28.5285 44.634 29.2177 44.634 29.9161C44.634 30.6145 44.4744 31.3037 44.1674 31.9311C43.8604 32.5584 43.4142 33.1074 42.8627 33.5359C42.0059 34.181 41.0915 34.7458 40.1311 35.2233L39.6599 35.4748C38.6543 35.9821 37.7329 36.6414 36.9283 37.4296C36.1402 38.2342 35.4808 39.1555 34.9736 40.1612L34.7221 40.6292C34.245 41.5917 33.6801 42.5083 33.0347 43.3671C32.6061 43.9186 32.0572 44.3649 31.4299 44.6718C30.8025 44.9788 30.1133 45.1384 29.4149 45.1384C28.7164 45.1384 28.0273 44.9788 27.3999 44.6718C26.7725 44.3649 26.2236 43.9186 25.795 43.3671C25.1492 42.5086 24.5844 41.592 24.1077 40.6292L23.853 40.1612C23.3457 39.1555 22.6864 38.2342 21.8982 37.4296C21.0936 36.6414 20.1723 35.9821 19.1666 35.4748C19.012 35.3914 18.8571 35.3086 18.7018 35.2265C17.7391 34.7484 16.8226 34.1825 15.9639 33.5359C15.4124 33.1074 14.9661 32.5584 14.6592 31.9311C14.3522 31.3037 14.1926 30.6145 14.1926 29.9161C14.1926 29.2177 14.3522 28.5285 14.6592 27.9011C14.9661 27.2738 15.4124 26.7249 15.9639 26.2963C16.9062 25.5577 17.8677 25.0483 18.7018 24.6089L19.1666 24.3542C20.1723 23.847 21.0936 23.1876 21.8982 22.3995C22.6875 21.5951 23.348 20.6737 23.8562 19.6679L24.1045 19.1999C24.547 18.3721 25.0564 17.4075 25.795 16.4651Z" fill="#0B5CFF"/>
</svg>
