<svg width="32" height="34" viewBox="0 0 32 34" fill="none" xmlns="http://www.w3.org/2000/svg">
<path d="M16 0.125C10.8858 0.125 7.39375 0.39125 5.2345 0.64325C3.0685 0.896 1.417 2.53775 1.1695 4.712C0.907 7.01975 0.625 10.9175 0.625 17C0.625 23.0825 0.90775 26.9802 1.1695 29.288C1.417 31.4622 3.0685 33.104 5.2345 33.3567C7.3945 33.6087 10.8858 33.875 16 33.875C21.1142 33.875 24.6063 33.6087 26.7648 33.3567C28.9315 33.104 30.583 31.4622 30.8297 29.288C31.0922 26.9802 31.375 23.0825 31.375 17C31.375 14.7223 31.3352 12.7505 31.2715 11.0547C31.2674 10.9388 31.2454 10.8242 31.2063 10.715C30.862 9.76175 29.8113 7.5845 26.764 4.61375C23.5308 1.46075 21.22 0.50375 20.3605 0.236C20.2635 0.205813 20.1628 0.188909 20.0613 0.18575C18.8403 0.14825 17.4888 0.125 16 0.125Z" fill="#0B5CFF"/>
<path d="M31.2475 10.862C29.3425 10.862 26.062 10.832 24.1832 10.6512C22.1357 10.4547 20.5263 8.8212 20.3253 6.72945C20.1595 4.9992 20.1265 2.10795 20.125 0.189453C20.2045 0.196953 20.2832 0.212703 20.3597 0.236703C21.22 0.503703 23.5308 1.4607 26.764 4.61445C29.8105 7.5852 30.862 9.76245 31.2055 10.7157C31.2228 10.7634 31.2368 10.8123 31.2475 10.862Z" fill="#93C5FD"/>
<path d="M18.8695 20.4545L18.6805 26.0165C18.6475 27.0027 17.9718 27.854 16.9893 27.9387C16.331 27.9955 15.669 27.9955 15.0108 27.9387C14.0283 27.8532 13.3525 27.0027 13.3188 26.0165L13.1305 20.4478C12.5448 20.4328 12.031 20.4148 11.581 20.3953C10.099 20.3278 9.49452 18.9328 10.486 17.8288C10.9986 17.2602 11.5238 16.7031 12.061 16.1578C13.3443 14.8498 14.326 14.0697 15.0055 13.61C15.7143 13.13 16.588 13.13 17.2975 13.61C17.977 14.069 18.9588 14.8498 20.242 16.1578C20.7787 16.7031 21.3034 17.2603 21.8155 17.8288C22.807 18.9328 22.2033 20.3277 20.7205 20.3945C20.1955 20.4185 19.582 20.4395 18.8695 20.4545Z" fill="#93C5FD"/>
</svg>
