<svg width="12" height="12" viewBox="0 0 12 12" fill="none" xmlns="http://www.w3.org/2000/svg">
<path d="M7.17424 2.55624L4.20928 5.36928C4.12498 5.45371 4.05825 5.55401 4.01295 5.66438C3.96764 5.77475 3.94466 5.893 3.94533 6.01231C3.946 6.13161 3.9703 6.2496 4.01685 6.35945C4.06339 6.46931 4.13124 6.56885 4.21648 6.65232L7.16848 9.45816C7.27419 9.54893 7.41071 9.59565 7.54986 9.58867C7.68902 9.58169 7.82018 9.52155 7.91627 9.42065C8.01236 9.31976 8.06604 9.18582 8.06623 9.04649C8.06642 8.90716 8.0131 8.77308 7.91728 8.67192L5.24608 6.13536C5.22835 6.11861 5.21422 6.09841 5.20456 6.076C5.1949 6.05359 5.18992 6.02944 5.18992 6.00504C5.18992 5.98064 5.1949 5.9565 5.20456 5.93409C5.21422 5.91168 5.22835 5.89148 5.24608 5.87472L7.91944 3.33888C7.97083 3.29 8.01209 3.23147 8.04086 3.16665C8.06963 3.10182 8.08535 3.03196 8.08712 2.96106C8.08889 2.89015 8.07668 2.81959 8.05119 2.75341C8.02569 2.68723 7.98741 2.62671 7.93852 2.57532C7.88964 2.52394 7.83111 2.48268 7.76628 2.45391C7.70146 2.42514 7.6316 2.40942 7.56069 2.40765C7.48979 2.40587 7.41923 2.41808 7.35305 2.44358C7.28687 2.46908 7.22635 2.50736 7.17496 2.55624H7.17424Z" fill="#0B5CFF"/>
</svg>
