<svg width="10" height="16" viewBox="0 0 10 16" fill="none" xmlns="http://www.w3.org/2000/svg">
<path d="M2.71683 1.11542L8.64596 6.7415C8.81454 6.91035 8.94798 7.11094 9.03858 7.33168C9.12918 7.55242 9.17514 7.78893 9.1738 8.02754C9.17246 8.26615 9.12385 8.50213 9.03078 8.72184C8.93771 8.94155 8.80202 9.14063 8.63156 9.30758L2.72835 14.9193C2.51697 15.1008 2.24396 15.1942 1.96569 15.1803C1.68741 15.1663 1.42512 15.046 1.23297 14.8442C1.04082 14.6424 0.933472 14.3746 0.933095 14.0959C0.932718 13.8172 1.03934 13.5491 1.23095 13.3468L6.57263 8.27366C6.6081 8.24014 6.63636 8.19974 6.65567 8.15492C6.67498 8.11011 6.68494 8.06182 6.68494 8.01302C6.68494 7.96422 6.67498 7.91593 6.65567 7.87111C6.63636 7.82629 6.6081 7.78589 6.57263 7.75238L1.22663 2.6807C1.12386 2.58293 1.04136 2.46588 0.983827 2.33622C0.926293 2.20657 0.894859 2.06685 0.891315 1.92504C0.887773 1.78323 0.912191 1.64212 0.963178 1.50975C1.01416 1.37738 1.09072 1.25636 1.18847 1.15358C1.28623 1.0508 1.40326 0.968285 1.5329 0.910745C1.66254 0.853204 1.80224 0.821763 1.94403 0.81822C2.08582 0.814676 2.22691 0.839099 2.35926 0.890092C2.49161 0.941086 2.61263 1.01765 2.71539 1.11542H2.71683Z" fill="white"/>
</svg>
 