<svg width="16" height="16" viewBox="0 0 16 16" fill="none" xmlns="http://www.w3.org/2000/svg">
<path d="M13.5 4.99936L13.0833 12.0883C13.0609 12.4704 12.8933 12.8294 12.6148 13.092C12.3363 13.3545 11.968 13.5006 11.5853 13.5005H4.41467C4.03197 13.5006 3.6637 13.3545 3.38522 13.092C3.10674 12.8294 2.93912 12.4704 2.91667 12.0883L2.5 4.99936M6.5 7.74972L8 9.24992M8 9.24992L9.5 10.7501M8 9.24992L9.5 7.74972M8 9.24992L6.5 10.7501M2.25 4.99936H13.75C14.164 4.99936 14.5 4.66331 14.5 4.24926V3.24912C14.5 2.83507 14.164 2.49902 13.75 2.49902H2.25C1.836 2.49902 1.5 2.83507 1.5 3.24912V4.24926C1.5 4.66331 1.836 4.99936 2.25 4.99936Z" stroke="#B91C1C" stroke-linecap="round" stroke-linejoin="round"/>
</svg>
