<svg width="36" height="36" viewBox="0 0 36 36" fill="none" xmlns="http://www.w3.org/2000/svg">
<path fill-rule="evenodd" clip-rule="evenodd" d="M18 0C19.0651 0 19.9286 0.86345 19.9286 1.92857V7.07143C19.9286 8.13654 19.0651 9 18 9C16.9349 9 16.0714 8.13654 16.0714 7.07143V1.92857C16.0714 0.86345 16.9349 0 18 0Z" fill="#BFDBFE"/>
<path d="M3.85715 8.98789C3.85715 6.86418 5.58404 5.14258 7.71429 5.14258H28.2857C30.4159 5.14258 32.1429 6.86418 32.1429 8.98789V23.7854H3.85715V8.98789Z" fill="#0B5CFF"/>
<path fill-rule="evenodd" clip-rule="evenodd" d="M23.1087 23.7854H12.8913C12.8697 23.7851 12.8482 23.7851 12.8266 23.7854H1.92857C0.86345 23.7854 0 24.6489 0 25.714C0 26.7791 0.86345 27.6426 1.92857 27.6426H9.40585L6.07181 33.0603C5.51358 33.9675 5.79641 35.1555 6.70353 35.7135C7.61066 36.2718 8.79855 35.9889 9.35676 35.082L13.9348 27.6426H22.0652L26.6433 35.082C27.2013 35.9889 28.3893 36.2718 29.2965 35.7135C30.2035 35.1555 30.4863 33.9675 29.9281 33.0603L26.5942 27.6426H34.0714C35.1365 27.6426 36 26.7791 36 25.714C36 24.6489 35.1365 23.7854 34.0714 23.7854H23.1734C23.1518 23.7851 23.1303 23.7851 23.1087 23.7854Z" fill="#BFDBFE"/>
</svg>
