<svg width="16" height="16" viewBox="0 0 16 16" fill="none" xmlns="http://www.w3.org/2000/svg">
<path d="M4.2002 9.60039C4.2002 9.44126 4.26341 9.28865 4.37593 9.17613C4.48845 9.0636 4.64107 9.00039 4.8002 9.00039H4.8082C4.96733 9.00039 5.11994 9.0636 5.23246 9.17613C5.34498 9.28865 5.4082 9.44126 5.4082 9.60039V9.60839C5.4082 9.76752 5.34498 9.92013 5.23246 10.0327C5.11994 10.1452 4.96733 10.2084 4.8082 10.2084H4.8002C4.64107 10.2084 4.48845 10.1452 4.37593 10.0327C4.26341 9.92013 4.2002 9.76752 4.2002 9.60839V9.60039ZM4.8002 10.6004C4.64107 10.6004 4.48845 10.6636 4.37593 10.7761C4.26341 10.8886 4.2002 11.0413 4.2002 11.2004V11.2084C4.2002 11.5396 4.469 11.8084 4.8002 11.8084H4.8082C4.96733 11.8084 5.11994 11.7452 5.23246 11.6327C5.34498 11.5201 5.4082 11.3675 5.4082 11.2084V11.2004C5.4082 11.0413 5.34498 10.8886 5.23246 10.7761C5.11994 10.6636 4.96733 10.6004 4.8082 10.6004H4.8002ZM5.8002 9.60039C5.8002 9.44126 5.86341 9.28865 5.97593 9.17613C6.08845 9.0636 6.24107 9.00039 6.4002 9.00039H6.4082C6.56733 9.00039 6.71994 9.0636 6.83246 9.17613C6.94498 9.28865 7.0082 9.44126 7.0082 9.60039V9.60839C7.0082 9.76752 6.94498 9.92013 6.83246 10.0327C6.71994 10.1452 6.56733 10.2084 6.4082 10.2084H6.4002C6.24107 10.2084 6.08845 10.1452 5.97593 10.0327C5.86341 9.92013 5.8002 9.76752 5.8002 9.60839V9.60039ZM6.4002 10.6004C6.24107 10.6004 6.08845 10.6636 5.97593 10.7761C5.86341 10.8886 5.8002 11.0413 5.8002 11.2004V11.2084C5.8002 11.5396 6.069 11.8084 6.4002 11.8084H6.4082C6.56733 11.8084 6.71994 11.7452 6.83246 11.6327C6.94498 11.5201 7.0082 11.3675 7.0082 11.2084V11.2004C7.0082 11.0413 6.94498 10.8886 6.83246 10.7761C6.71994 10.6636 6.56733 10.6004 6.4082 10.6004H6.4002ZM7.4002 8.00039C7.4002 7.84126 7.46341 7.68865 7.57593 7.57613C7.68845 7.46361 7.84107 7.40039 8.0002 7.40039H8.0082C8.16733 7.40039 8.31994 7.46361 8.43246 7.57613C8.54498 7.68865 8.6082 7.84126 8.6082 8.00039V8.00839C8.6082 8.16752 8.54498 8.32013 8.43246 8.43265C8.31994 8.54518 8.16733 8.60839 8.0082 8.60839H8.0002C7.84107 8.60839 7.68845 8.54518 7.57593 8.43265C7.46341 8.32013 7.4002 8.16752 7.4002 8.00839V8.00039ZM8.0002 9.00039C7.84107 9.00039 7.68845 9.0636 7.57593 9.17613C7.46341 9.28865 7.4002 9.44126 7.4002 9.60039V9.60839C7.4002 9.93959 7.669 10.2084 8.0002 10.2084H8.0082C8.16733 10.2084 8.31994 10.1452 8.43246 10.0327C8.54498 9.92013 8.6082 9.76752 8.6082 9.60839V9.60039C8.6082 9.44126 8.54498 9.28865 8.43246 9.17613C8.31994 9.0636 8.16733 9.00039 8.0082 9.00039H8.0002ZM7.4002 11.2004C7.4002 11.0413 7.46341 10.8886 7.57593 10.7761C7.68845 10.6636 7.84107 10.6004 8.0002 10.6004H8.0082C8.16733 10.6004 8.31994 10.6636 8.43246 10.7761C8.54498 10.8886 8.6082 11.0413 8.6082 11.2004V11.2084C8.6082 11.3675 8.54498 11.5201 8.43246 11.6327C8.31994 11.7452 8.16733 11.8084 8.0082 11.8084H8.0002C7.84107 11.8084 7.68845 11.7452 7.57593 11.6327C7.46341 11.5201 7.4002 11.3675 7.4002 11.2084V11.2004ZM9.6002 7.40039C9.44107 7.40039 9.28845 7.46361 9.17593 7.57613C9.06341 7.68865 9.0002 7.84126 9.0002 8.00039V8.00839C9.0002 8.33959 9.269 8.60839 9.6002 8.60839H9.6082C9.76733 8.60839 9.91994 8.54518 10.0325 8.43265C10.145 8.32013 10.2082 8.16752 10.2082 8.00839V8.00039C10.2082 7.84126 10.145 7.68865 10.0325 7.57613C9.91994 7.46361 9.76733 7.40039 9.6082 7.40039H9.6002ZM9.0002 9.60039C9.0002 9.44126 9.06341 9.28865 9.17593 9.17613C9.28845 9.0636 9.44107 9.00039 9.6002 9.00039H9.6082C9.76733 9.00039 9.91994 9.0636 10.0325 9.17613C10.145 9.28865 10.2082 9.44126 10.2082 9.60039V9.60839C10.2082 9.76752 10.145 9.92013 10.0325 10.0327C9.91994 10.1452 9.76733 10.2084 9.6082 10.2084H9.6002C9.44107 10.2084 9.28845 10.1452 9.17593 10.0327C9.06341 9.92013 9.0002 9.76752 9.0002 9.60839V9.60039ZM9.6002 10.6004C9.44107 10.6004 9.28845 10.6636 9.17593 10.7761C9.06341 10.8886 9.0002 11.0413 9.0002 11.2004V11.2084C9.0002 11.5396 9.269 11.8084 9.6002 11.8084H9.6082C9.76733 11.8084 9.91994 11.7452 10.0325 11.6327C10.145 11.5201 10.2082 11.3675 10.2082 11.2084V11.2004C10.2082 11.0413 10.145 10.8886 10.0325 10.7761C9.91994 10.6636 9.76733 10.6004 9.6082 10.6004H9.6002ZM10.6002 8.00039C10.6002 7.84126 10.6634 7.68865 10.7759 7.57613C10.8885 7.46361 11.0411 7.40039 11.2002 7.40039H11.2082C11.3673 7.40039 11.5199 7.46361 11.6325 7.57613C11.745 7.68865 11.8082 7.84126 11.8082 8.00039V8.00839C11.8082 8.16752 11.745 8.32013 11.6325 8.43265C11.5199 8.54518 11.3673 8.60839 11.2082 8.60839H11.2002C11.0411 8.60839 10.8885 8.54518 10.7759 8.43265C10.6634 8.32013 10.6002 8.16752 10.6002 8.00839V8.00039ZM11.2002 9.00039C11.0411 9.00039 10.8885 9.0636 10.7759 9.17613C10.6634 9.28865 10.6002 9.44126 10.6002 9.60039V9.60839C10.6002 9.93959 10.869 10.2084 11.2002 10.2084H11.2082C11.3673 10.2084 11.5199 10.1452 11.6325 10.0327C11.745 9.92013 11.8082 9.76752 11.8082 9.60839V9.60039C11.8082 9.44126 11.745 9.28865 11.6325 9.17613C11.5199 9.0636 11.3673 9.00039 11.2082 9.00039H11.2002Z" fill="#9CA3AF"/>
<path fill-rule="evenodd" clip-rule="evenodd" d="M4.59961 1.59961C4.75874 1.59961 4.91135 1.66282 5.02387 1.77535C5.1364 1.88787 5.19961 2.04048 5.19961 2.19961V3.19961H10.7996V2.19961C10.7996 2.04048 10.8628 1.88787 10.9753 1.77535C11.0879 1.66282 11.2405 1.59961 11.3996 1.59961C11.5587 1.59961 11.7114 1.66282 11.8239 1.77535C11.9364 1.88787 11.9996 2.04048 11.9996 2.19961V3.19961H12.1996C12.7831 3.19961 13.3427 3.43139 13.7552 3.84397C14.1678 4.25655 14.3996 4.81613 14.3996 5.39961V12.1996C14.3996 12.7831 14.1678 13.3427 13.7552 13.7552C13.3427 14.1678 12.7831 14.3996 12.1996 14.3996H3.79961C3.21613 14.3996 2.65655 14.1678 2.24397 13.7552C1.83139 13.3427 1.59961 12.7831 1.59961 12.1996V5.39961C1.59961 4.81613 1.83139 4.25655 2.24397 3.84397C2.65655 3.43139 3.21613 3.19961 3.79961 3.19961H3.99961V2.19961C3.99961 2.04048 4.06282 1.88787 4.17535 1.77535C4.28787 1.66282 4.44048 1.59961 4.59961 1.59961ZM3.79961 5.99961C3.24761 5.99961 2.79961 6.44761 2.79961 6.99961V12.1996C2.79961 12.7516 3.24761 13.1996 3.79961 13.1996H12.1996C12.7516 13.1996 13.1996 12.7516 13.1996 12.1996V6.99961C13.1996 6.44761 12.7516 5.99961 12.1996 5.99961H3.79961Z" fill="#9CA3AF"/>
</svg>
