<svg width="14" height="14" viewBox="0 0 14 14" fill="none" xmlns="http://www.w3.org/2000/svg">
<g clip-path="url(#clip0_2946_2498)">
<path fill-rule="evenodd" clip-rule="evenodd" d="M11.8314 13.1229C12.0038 13.2895 12.2348 13.3816 12.4745 13.3795C12.7142 13.3775 12.9435 13.2813 13.113 13.1118C13.2826 12.9423 13.3787 12.713 13.3808 12.4732C13.3829 12.2335 13.2907 12.0026 13.1242 11.8301L8.29858 7.00453L13.1333 2.1707C13.3049 1.99927 13.4013 1.7667 13.4014 1.52417C13.4015 1.28164 13.3052 1.049 13.1338 0.877446C12.9623 0.705889 12.7298 0.609461 12.4873 0.609375C12.2447 0.609289 12.0121 0.705553 11.8405 0.876989L7.00578 5.71173L2.1619 0.867846C1.98946 0.701301 1.75851 0.609147 1.51879 0.61123C1.27907 0.613313 1.04975 0.709467 0.880236 0.878983C0.71072 1.0485 0.614566 1.27781 0.612483 1.51754C0.610399 1.75726 0.702554 1.98821 0.869099 2.16065L5.71207 7.00453L0.878242 11.8393C0.790918 11.9236 0.721266 12.0245 0.673349 12.136C0.625432 12.2476 0.600211 12.3676 0.599156 12.489C0.598101 12.6104 0.621234 12.7308 0.667205 12.8431C0.713176 12.9555 0.781064 13.0576 0.866909 13.1434C0.952754 13.2293 1.05484 13.2971 1.1672 13.3431C1.27956 13.3891 1.39995 13.4122 1.52135 13.4112C1.64275 13.4101 1.76272 13.3849 1.87427 13.337C1.98582 13.289 2.0867 13.2194 2.17104 13.1321L7.00578 8.29825L11.8314 13.1238V13.1229Z" fill="#0B5CFF"/>
</g>
<defs>
<clipPath id="clip0_2946_2498">
<rect width="12.8" height="12.8" fill="white" transform="translate(0.601562 0.599609)"/>
</clipPath>
</defs>
</svg>
