<svg width="24" height="24" viewBox="0 0 24 24" fill="none" xmlns="http://www.w3.org/2000/svg">
<path d="M12 9.74943V16.4994M12 16.4994L9.00001 13.4994M12 16.4994L15 13.4994M6.75001 19.4994C5.67944 19.5006 4.64353 19.12 3.82831 18.4261C3.01309 17.7322 2.47196 16.7704 2.30212 15.7134C2.13227 14.6563 2.34484 13.5734 2.90163 12.659C3.45842 11.7446 4.32297 11.0587 5.34001 10.7244C5.07871 9.3856 5.34877 7.99764 6.09299 6.85445C6.83722 5.71127 7.99718 4.90263 9.32723 4.59979C10.6573 4.29694 12.053 4.52367 13.2188 5.23195C14.3846 5.94023 15.2289 7.07446 15.573 8.39443C16.105 8.22141 16.6748 8.20059 17.218 8.33433C17.7612 8.46807 18.2562 8.75104 18.6471 9.15127C19.038 9.55151 19.3092 10.0531 19.43 10.5993C19.5509 11.1455 19.5166 11.7147 19.331 12.2424C20.1497 12.5551 20.833 13.1445 21.2626 13.9084C21.6921 14.6722 21.8407 15.5623 21.6826 16.4243C21.5245 17.2863 21.0697 18.0657 20.3971 18.6274C19.7244 19.1891 18.8763 19.4976 18 19.4994H6.75001Z" stroke="#0B5CFF" stroke-width="1.5" stroke-linecap="round" stroke-linejoin="round"/>
</svg>
