<svg width="38" height="38" viewBox="0 0 38 38" fill="none" xmlns="http://www.w3.org/2000/svg">
<g clip-path="url(#clip0_2444_33065)">
<path d="M31.2448 16.4397C31.1192 16.4023 31.0071 16.3297 30.9214 16.2306C30.8359 16.1315 30.7805 16.0099 30.7616 15.8803C30.5369 13.4184 29.4753 11.108 27.7531 9.33425C26.0312 7.56051 23.7533 6.4307 21.2992 6.13324C18.845 5.83576 16.3631 6.38862 14.2673 7.69958C12.1714 9.01056 10.5883 11.0004 9.78203 13.3373C9.72867 13.4463 9.64526 13.5377 9.54162 13.6008C9.43797 13.6639 9.31845 13.696 9.19714 13.6933C8.02833 13.7718 6.88641 14.0797 5.83658 14.5995C4.78678 15.1193 3.84962 15.8408 3.07863 16.7228C1.52155 18.504 0.735831 20.8308 0.894324 23.1914C1.05282 25.5519 2.14254 27.7529 3.92377 29.3098C5.70499 30.867 8.0318 31.6526 10.3924 31.4942H29.541C31.4079 31.483 33.2059 30.7878 34.5945 29.5398C35.9829 28.292 36.8659 26.5784 37.0758 24.7233C37.2858 22.8683 36.8084 21.0006 35.7336 19.474C34.659 17.9474 33.0619 16.8679 31.2448 16.4397Z" fill="#0B5CFF"/>
<g clip-path="url(#clip1_2444_33065)">
<path fill-rule="evenodd" clip-rule="evenodd" d="M17.3252 18.6518C17.3252 17.7272 18.0747 16.9777 18.9993 16.9777C19.9238 16.9777 20.6734 17.7272 20.6734 18.6518V19.3214H17.3252V18.6518ZM15.3162 19.5902V18.6518C15.3162 16.6177 16.9652 14.9688 18.9993 14.9688C21.0333 14.9688 22.6823 16.6177 22.6823 18.6518V19.5902C23.2827 19.9375 23.6868 20.5868 23.6868 21.3303V23.3393C23.6868 24.4488 22.7873 25.3482 21.6778 25.3482H16.3207C15.2112 25.3482 14.3118 24.4488 14.3118 23.3393V21.3303C14.3118 20.5868 14.7158 19.9375 15.3162 19.5902Z" fill="white"/>
</g>
</g>
<defs>
<clipPath id="clip0_2444_33065">
<rect width="36.25" height="36.25" fill="white" transform="translate(0.874268 0.875)"/>
</clipPath>
<clipPath id="clip1_2444_33065">
<rect width="11.25" height="11.25" fill="white" transform="translate(13.3743 14.5)"/>
</clipPath>
</defs>
</svg>
