<svg width="16" height="17" viewBox="0 0 16 17" fill="none" xmlns="http://www.w3.org/2000/svg">
<path fill-rule="evenodd" clip-rule="evenodd" d="M12.7902 2.9094C13.2322 2.95642 13.6412 3.16533 13.9384 3.4959C14.2356 3.82646 14.3999 4.25529 14.3998 4.6998V9.8998C14.3998 10.3772 14.2102 10.835 13.8726 11.1726C13.535 11.5102 13.0772 11.6998 12.5998 11.6998H10.7998V8.9966C10.7997 8.36014 10.5467 7.74979 10.0966 7.2998L7.6006 4.803C7.29137 4.49383 6.90354 4.27502 6.479 4.1702C6.58281 3.83339 6.78312 3.53442 7.05515 3.31032C7.32717 3.08622 7.65895 2.94683 8.0094 2.9094C8.05642 2.46739 8.26533 2.0584 8.5959 1.76122C8.92646 1.46404 9.35529 1.29968 9.7998 1.2998H10.9998C11.4443 1.29968 11.8731 1.46404 12.2037 1.76122C12.5343 2.0584 12.7432 2.46739 12.7902 2.9094ZM9.1998 3.0998C9.1998 2.94067 9.26302 2.78806 9.37554 2.67554C9.48806 2.56302 9.64067 2.4998 9.7998 2.4998H10.9998C11.1589 2.4998 11.3115 2.56302 11.4241 2.67554C11.5366 2.78806 11.5998 2.94067 11.5998 3.0998V3.2998H9.1998V3.0998Z" fill="#6B7280"/>
<path d="M2.8001 5.29981C2.48184 5.29981 2.17661 5.42623 1.95157 5.65128C1.72653 5.87632 1.6001 6.18155 1.6001 6.49981V13.6998C1.6001 14.0181 1.72653 14.3233 1.95157 14.5483C2.17661 14.7734 2.48184 14.8998 2.8001 14.8998H8.4001C8.71836 14.8998 9.02358 14.7734 9.24863 14.5483C9.47367 14.3233 9.6001 14.0181 9.6001 13.6998V8.99661C9.59982 8.67845 9.47321 8.37343 9.2481 8.14861L6.7521 5.65101C6.64052 5.5395 6.50805 5.45108 6.36226 5.39082C6.21648 5.33056 6.06025 5.29963 5.9025 5.29981H2.8001Z" fill="#6B7280"/>
</svg>
