<svg width="16" height="16" viewBox="0 0 16 16" fill="none" xmlns="http://www.w3.org/2000/svg">
<path d="M8.60039 8.65423V10.7454C8.92355 10.6909 9.23286 10.5735 9.51079 10.3998C9.89639 10.1478 10.0004 9.88143 10.0004 9.69983C10.0004 9.51823 9.89639 9.25183 9.51079 8.99983C9.23286 8.82616 8.92355 8.70874 8.60039 8.65423ZM6.66439 6.89583C6.70679 6.93983 6.75639 6.98383 6.81159 7.02703C6.97799 7.15503 7.17959 7.25423 7.40039 7.31743V5.28223C7.30455 5.30972 7.21094 5.34449 7.12039 5.38623C7.00839 5.43823 6.90439 5.50063 6.81159 5.57263C6.50999 5.80623 6.40039 6.07423 6.40039 6.29983C6.40039 6.44703 6.44679 6.61183 6.56199 6.77343C6.59159 6.81423 6.62599 6.85583 6.66439 6.89583Z" fill="#9CA3AF"/>
<path fill-rule="evenodd" clip-rule="evenodd" d="M14.3996 7.99961C14.3996 9.69699 13.7253 11.3249 12.5251 12.5251C11.3249 13.7253 9.69699 14.3996 7.99961 14.3996C6.30222 14.3996 4.67436 13.7253 3.47413 12.5251C2.27389 11.3249 1.59961 9.69699 1.59961 7.99961C1.59961 6.30222 2.27389 4.67436 3.47413 3.47413C4.67436 2.27389 6.30222 1.59961 7.99961 1.59961C9.69699 1.59961 11.3249 2.27389 12.5251 3.47413C13.7253 4.67436 14.3996 6.30222 14.3996 7.99961ZM7.99961 3.19961C8.15874 3.19961 8.31135 3.26282 8.42387 3.37535C8.5364 3.48787 8.59961 3.64048 8.59961 3.79961V4.05241C9.07991 4.13327 9.53358 4.32895 9.92201 4.62281C10.2628 4.88681 10.5172 5.21481 10.662 5.58281C10.7157 5.7298 10.7098 5.89192 10.6456 6.03462C10.5814 6.17733 10.464 6.28931 10.3184 6.3467C10.1729 6.40409 10.0107 6.40235 9.86636 6.34184C9.72206 6.28134 9.60711 6.16686 9.54601 6.02281C9.46971 5.84312 9.34613 5.68746 9.18841 5.57241C9.01223 5.43932 8.81244 5.34079 8.59961 5.28201V7.43961C9.15801 7.51401 9.70601 7.69561 10.1668 7.99641C10.7964 8.40761 11.1988 9.01241 11.1988 9.70041C11.1988 10.3884 10.7956 10.9932 10.1668 11.4044C9.70601 11.706 9.15801 11.8868 8.59881 11.9612V12.2004C8.59881 12.3595 8.5356 12.5122 8.42307 12.6247C8.31055 12.7372 8.15794 12.8004 7.99881 12.8004C7.83968 12.8004 7.68707 12.7372 7.57455 12.6247C7.46202 12.5122 7.39881 12.3595 7.39881 12.2004V11.9604C6.84121 11.8868 6.29321 11.706 5.83241 11.4044C5.44681 11.1524 5.14681 10.8308 4.97001 10.454C4.90254 10.3098 4.8951 10.1448 4.94934 9.99511C5.00357 9.84546 5.11504 9.72348 5.25921 9.65601C5.40338 9.58854 5.56845 9.5811 5.7181 9.63534C5.86776 9.68957 5.98974 9.80104 6.05721 9.94521C6.12121 10.0836 6.25321 10.246 6.48921 10.4004C6.73961 10.5644 7.05401 10.6828 7.39961 10.746V8.54761C6.91932 8.46669 6.46567 8.27101 6.07721 7.97721C5.51961 7.54601 5.19961 6.94441 5.19961 6.29961C5.19961 5.65561 5.51961 5.05321 6.07721 4.62281C6.46564 4.32895 6.91931 4.13327 7.39961 4.05241V3.79961C7.39961 3.64048 7.46282 3.48787 7.57535 3.37535C7.68787 3.26282 7.84048 3.19961 7.99961 3.19961Z" fill="#9CA3AF"/>
</svg>
