<svg width="16" height="16" viewBox="0 0 16 16" fill="none" xmlns="http://www.w3.org/2000/svg">
<path d="M2.25 2C1.55933 2 1 2.56 1 3.25V3.75C1 4.44067 1.56 5 2.25 5H13.75C14.44 5 15 4.44 15 3.75V3.25C15 2.55933 14.44 2 13.75 2H2.25Z" fill="#B91C1C"/>
<path fill-rule="evenodd" clip-rule="evenodd" d="M2.05762 6L2.41762 12.1173C2.44753 12.6264 2.67075 13.1047 3.04163 13.4547C3.4125 13.8046 3.90304 13.9997 4.41295 14H11.5843C12.0944 14 12.5853 13.8051 12.9565 13.4551C13.3276 13.1052 13.551 12.6266 13.581 12.1173L13.9416 6H2.05762ZM6.16628 8.5C6.16628 8.36739 6.21896 8.24022 6.31273 8.14645C6.4065 8.05268 6.53368 8 6.66628 8H9.33295C9.46556 8 9.59274 8.05268 9.6865 8.14645C9.78027 8.24022 9.83295 8.36739 9.83295 8.5C9.83295 8.63261 9.78027 8.75978 9.6865 8.85355C9.59274 8.94732 9.46556 9 9.33295 9H6.66628C6.53368 9 6.4065 8.94732 6.31273 8.85355C6.21896 8.75978 6.16628 8.63261 6.16628 8.5Z" fill="#B91C1C"/>
</svg>
