<svg width="16" height="16" viewBox="0 0 16 16" fill="none" xmlns="http://www.w3.org/2000/svg">
<path fill-rule="evenodd" clip-rule="evenodd" d="M3.59924 1.6001C3.28103 1.6001 2.97585 1.72653 2.75083 1.95157C2.52582 2.17661 2.39941 2.48184 2.39941 2.8001V13.2001C2.39941 13.5184 2.52582 13.8236 2.75083 14.0486C2.97585 14.2737 3.28103 14.4001 3.59924 14.4001H12.398C12.7162 14.4001 13.0213 14.2737 13.2464 14.0486C13.4714 13.8236 13.5978 13.5184 13.5978 13.2001V6.0969C13.5975 5.77875 13.4709 5.47373 13.2458 5.2489L9.95031 1.9513C9.83875 1.83979 9.7063 1.75137 9.56053 1.69111C9.41477 1.63085 9.25856 1.59992 9.10084 1.6001H3.59924ZM7.39868 7.0001C7.39868 6.84097 7.46189 6.68836 7.5744 6.57583C7.6869 6.46331 7.83949 6.4001 7.9986 6.4001C8.1577 6.4001 8.31029 6.46331 8.4228 6.57583C8.5353 6.68836 8.59851 6.84097 8.59851 7.0001V9.0369L9.3528 8.1985C9.46028 8.08414 9.60829 8.01645 9.76508 8.00995C9.92188 8.00346 10.075 8.05866 10.1915 8.16374C10.3081 8.26882 10.3789 8.41539 10.3887 8.57204C10.3984 8.72869 10.3465 8.88293 10.2439 9.0017L8.44413 11.0017C8.38788 11.0641 8.31916 11.114 8.24241 11.1481C8.16566 11.1823 8.0826 11.1999 7.9986 11.1999C7.9146 11.1999 7.83154 11.1823 7.75479 11.1481C7.67804 11.114 7.60931 11.0641 7.55306 11.0017L5.75332 9.0017C5.69864 8.94352 5.65612 8.875 5.62826 8.80017C5.60039 8.72534 5.58774 8.6457 5.59105 8.56592C5.59435 8.48614 5.61355 8.40782 5.64751 8.33555C5.68147 8.26328 5.72951 8.19852 5.78881 8.14506C5.84812 8.0916 5.9175 8.05052 5.99289 8.02423C6.06827 7.99793 6.14815 7.98695 6.22783 7.99193C6.30752 7.9969 6.38541 8.01774 6.45694 8.05321C6.52847 8.08868 6.5922 8.13808 6.64439 8.1985L7.39868 9.0369V7.0001Z" fill="#6B7280"/>
</svg>
