<svg width="100" height="100" viewBox="0 0 42 42" fill="none" xmlns="http://www.w3.org/2000/svg">
  <g clip-path="url(#clip0_4112_75770)">
    <rect x="0.999817" y="0.99939" width="40" height="40" fill="white"/>
    <path d="M9.69531 18.5348C9.69531 23.445 13.6759 27.4256 18.5862 27.4256C23.4964 27.4256 27.477 23.445 27.477 18.5348C27.477 13.6246 23.4964 9.64392 18.5862 9.64392C13.6759 9.64392 9.69531 13.6246 9.69531 18.5348Z" fill="#0B5CFF"/>
    <path d="M24.0194 16.0651C21.8165 16.0651 20.225 16.1337 19.126 16.2118C17.5652 16.3234 16.3748 17.5138 16.2632 19.0746C16.1851 20.1736 16.1165 21.7651 16.1165 23.9681C16.1165 26.171 16.1851 27.7625 16.2632 28.8615C16.3748 30.4223 17.5652 31.6127 19.126 31.7243C20.225 31.8024 21.8165 31.871 24.0194 31.871C26.2224 31.871 27.8139 31.8024 28.9129 31.7243C30.4737 31.6127 31.6641 30.4223 31.7757 28.8615C31.8538 27.7625 31.9224 26.171 31.9224 23.9681C31.9224 21.7651 31.8538 20.1736 31.7757 19.0746C31.6641 17.5138 30.4737 16.3234 28.9129 16.2118C27.8139 16.1337 26.2224 16.0651 24.0194 16.0651Z" fill="#93C5FD"/>
  </g>
  <path d="M12.8545 0.506063C6.03464 0.506063 0.506063 6.03464 0.506063 12.8545V29.1455C0.506063 35.9654 6.03464 41.4939 12.8545 41.4939H29.1455C35.9654 41.4939 41.4939 35.9654 41.4939 29.1455V12.8545C41.4939 6.03464 35.9654 0.506063 29.1455 0.506063H12.8545Z" stroke="#E2E8F0" stroke-width="0.987874"/>
  <defs>
    <clipPath id="clip0_4112_75770">
      <path d="M1 12.8545C1 6.30743 6.30743 1 12.8545 1H29.1455C35.6926 1 41 6.30743 41 12.8545V29.1455C41 35.6926 35.6926 41 29.1455 41H12.8545C6.30743 41 1 35.6926 1 29.1455V12.8545Z" fill="white"/>
    </clipPath>
  </defs>
</svg>
