<svg width="15" height="14" viewBox="0 0 15 14" fill="none" xmlns="http://www.w3.org/2000/svg">
<path fill-rule="evenodd" clip-rule="evenodd" d="M1.83918 1.83464C3.06604 0.609899 4.83574 -0.00195312 7.00713 -0.00195312C9.17852 -0.00195312 10.9482 0.609899 12.1751 1.83464C13.4009 3.06042 14.0133 4.82857 14.0133 6.99805C14.0133 9.16753 13.4009 10.9357 12.1751 12.1615C10.9482 13.3862 9.17852 13.998 7.00713 13.998C4.83574 13.998 3.06604 13.3862 1.83918 12.1615C0.613366 10.9357 0.000976562 9.16753 0.000976562 6.99805C0.000976562 4.82857 0.613366 3.06042 1.83918 1.83464ZM7.00713 3.03242C7.21359 3.03242 7.41159 3.11436 7.55758 3.26022C7.70357 3.40608 7.78559 3.60392 7.78559 3.81019V7.1702C7.78559 7.37647 7.70357 7.57431 7.55758 7.72017C7.41159 7.86603 7.21359 7.94797 7.00713 7.94797C6.80067 7.94797 6.60266 7.86603 6.45667 7.72017C6.31068 7.57431 6.22867 7.37647 6.22867 7.1702V3.81019C6.22867 3.60392 6.31068 3.40608 6.45667 3.26022C6.60266 3.11436 6.80067 3.03242 7.00713 3.03242ZM7.00713 8.79938C7.21359 8.79938 7.41159 8.88132 7.55758 9.02719C7.70357 9.17305 7.78559 9.37088 7.78559 9.57716V10.1859C7.78559 10.3922 7.70357 10.59 7.55758 10.7359C7.41159 10.8817 7.21359 10.9637 7.00713 10.9637C6.80067 10.9637 6.60266 10.8817 6.45667 10.7359C6.31068 10.59 6.22867 10.3922 6.22867 10.1859V9.57716C6.22867 9.37088 6.31068 9.17305 6.45667 9.02719C6.60266 8.88132 6.80067 8.79938 7.00713 8.79938Z" fill="#EF4444"/>
</svg>
