<svg width="24" height="24" viewBox="0 0 24 24" fill="none" xmlns="http://www.w3.org/2000/svg">
<path fill-rule="evenodd" clip-rule="evenodd" d="M7.2017 12.0006C7.2017 12.6371 6.94888 13.2476 6.49885 13.6976C6.04883 14.1477 5.43846 14.4006 4.80202 14.4006C4.16559 14.4006 3.55522 14.1477 3.10519 13.6976C2.65517 13.2476 2.40234 12.6371 2.40234 12.0006C2.40234 11.3641 2.65517 10.7536 3.10519 10.3035C3.55522 9.85344 4.16559 9.60059 4.80202 9.60059C5.43846 9.60059 6.04883 9.85344 6.49885 10.3035C6.94888 10.7536 7.2017 11.3641 7.2017 12.0006ZM12.0011 14.4006C12.6375 14.4006 13.2479 14.1477 13.6979 13.6976C14.1479 13.2476 14.4007 12.6371 14.4007 12.0006C14.4007 11.3641 14.1479 10.7536 13.6979 10.3035C13.2479 9.85344 12.6375 9.60059 12.0011 9.60059C11.3646 9.60059 10.7543 9.85344 10.3042 10.3035C9.85421 10.7536 9.60138 11.3641 9.60138 12.0006C9.60138 12.6371 9.85421 13.2476 10.3042 13.6976C10.7543 14.1477 11.3646 14.4006 12.0011 14.4006ZM19.2001 14.4006C19.8365 14.4006 20.4469 14.1477 20.8969 13.6976C21.347 13.2476 21.5998 12.6371 21.5998 12.0006C21.5998 11.3641 21.347 10.7536 20.8969 10.3035C20.4469 9.85344 19.8365 9.60059 19.2001 9.60059C18.5637 9.60059 17.9533 9.85344 17.5033 10.3035C17.0532 10.7536 16.8004 11.3641 16.8004 12.0006C16.8004 12.6371 17.0532 13.2476 17.5033 13.6976C17.9533 14.1477 18.5637 14.4006 19.2001 14.4006Z" fill="#9CA3AF"/>
</svg>
