<svg width="16" height="16" viewBox="0 0 16 16" fill="none" xmlns="http://www.w3.org/2000/svg">
<path fill-rule="evenodd" clip-rule="evenodd" d="M14.4001 7.99961C14.4001 9.69699 13.7258 11.3249 12.5256 12.5251C11.3253 13.7253 9.69748 14.3996 8.0001 14.3996C6.30271 14.3996 4.67485 13.7253 3.47461 12.5251C2.27438 11.3249 1.6001 9.69699 1.6001 7.99961C1.6001 6.30222 2.27438 4.67436 3.47461 3.47413C4.67485 2.27389 6.30271 1.59961 8.0001 1.59961C9.69748 1.59961 11.3253 2.27389 12.5256 3.47413C13.7258 4.67436 14.4001 6.30222 14.4001 7.99961ZM8.8001 4.79961C8.8001 5.01178 8.71581 5.21527 8.56578 5.36529C8.41575 5.51532 8.21227 5.59961 8.0001 5.59961C7.78792 5.59961 7.58444 5.51532 7.43441 5.36529C7.28438 5.21527 7.2001 5.01178 7.2001 4.79961C7.2001 4.58744 7.28438 4.38395 7.43441 4.23392C7.58444 4.08389 7.78792 3.99961 8.0001 3.99961C8.21227 3.99961 8.41575 4.08389 8.56578 4.23392C8.71581 4.38395 8.8001 4.58744 8.8001 4.79961ZM7.2001 7.19961C7.04097 7.19961 6.88836 7.26282 6.77583 7.37535C6.66331 7.48787 6.6001 7.64048 6.6001 7.79961C6.6001 7.95874 6.66331 8.11135 6.77583 8.22387C6.88836 8.3364 7.04097 8.39961 7.2001 8.39961H7.4025C7.43242 8.39962 7.46197 8.40635 7.48895 8.4193C7.51593 8.43224 7.53966 8.45108 7.55839 8.47442C7.57713 8.49776 7.59038 8.525 7.59718 8.55415C7.60399 8.58329 7.60416 8.61359 7.5977 8.64281L7.2305 10.2956C7.18496 10.5003 7.18599 10.7127 7.23353 10.9169C7.28106 11.1212 7.37388 11.3122 7.50513 11.4757C7.63637 11.6393 7.8027 11.7713 7.9918 11.862C8.18091 11.9527 8.38798 11.9997 8.5977 11.9996H8.8001C8.95923 11.9996 9.11184 11.9364 9.22436 11.8239C9.33688 11.7114 9.4001 11.5587 9.4001 11.3996C9.4001 11.2405 9.33688 11.0879 9.22436 10.9753C9.11184 10.8628 8.95923 10.7996 8.8001 10.7996H8.5977C8.56777 10.7996 8.53823 10.7929 8.51125 10.7799C8.48427 10.767 8.46054 10.7481 8.4418 10.7248C8.42307 10.7015 8.40981 10.6742 8.40301 10.6451C8.39621 10.6159 8.39603 10.5856 8.4025 10.5564L8.7697 8.90361C8.81524 8.69889 8.8142 8.48656 8.76667 8.28229C8.71913 8.07803 8.62631 7.88705 8.49507 7.72347C8.36382 7.5599 8.1975 7.42789 8.00839 7.33722C7.81928 7.24655 7.61222 7.19952 7.4025 7.19961H7.2001Z" fill="#9CA3AF"/>
</svg>
