
<svg width="17" height="16" viewBox="0 0 17 16" fill="none" xmlns="http://www.w3.org/2000/svg">
<path d="M8.6647 13.4746C11.6883 13.4746 14.1395 11.0231 14.1395 7.999C14.1395 4.97492 11.6883 2.52344 8.6647 2.52344C5.64107 2.52344 3.18994 4.97492 3.18994 7.999C3.18994 11.0231 5.64107 13.4746 8.6647 13.4746Z" stroke="#CBD5E1" stroke-width="1.3" stroke-linecap="round" stroke-linejoin="round"/>
<path d="M9.91008 11.2908H9.16353C9.03153 11.2908 8.90492 11.2384 8.8116 11.145C8.71828 11.0517 8.66582 10.925 8.66582 10.793V7.55748C8.66582 7.49148 8.63959 7.42817 8.59296 7.38149C8.54627 7.33482 8.48296 7.30859 8.41697 7.30859H7.67041" stroke="#CBD5E1" stroke-width="1.3" stroke-linecap="round" stroke-linejoin="round"/>
<path d="M8.53898 5.51057C8.47024 5.51057 8.41455 5.45487 8.41455 5.38615C8.41455 5.31743 8.47024 5.26172 8.53898 5.26172" stroke="#CBD5E1" stroke-width="1.3"/>
<path d="M8.53564 5.51057C8.60433 5.51057 8.66007 5.45487 8.66007 5.38615C8.66007 5.31743 8.60433 5.26172 8.53564 5.26172" stroke="#CBD5E1" stroke-width="1.3"/>
</svg>
