<svg width="38" height="38" viewBox="0 0 38 38" fill="none" xmlns="http://www.w3.org/2000/svg">
<path fill-rule="evenodd" clip-rule="evenodd" d="M13.6048 14.2523C13.6048 11.2731 16.02 8.85796 18.9992 8.85796C21.9784 8.85796 24.3935 11.2731 24.3935 14.2523V16.41H13.6048V14.2523ZM7.13162 17.276V14.2523C7.13162 7.69805 12.4449 2.38477 18.9992 2.38477C25.5534 2.38477 30.8667 7.69805 30.8667 14.2523V17.276C32.8015 18.3953 34.1035 20.4872 34.1035 22.8832V29.3564C34.1035 32.9315 31.2051 35.8296 27.6301 35.8296H10.3682C6.79316 35.8296 3.89502 32.9315 3.89502 29.3564V22.8832C3.89502 20.4872 5.19678 18.3953 7.13162 17.276Z" fill="#0B5CFF"/>
</svg>
