<svg width="36" height="36" viewBox="0 0 36 36" fill="none" xmlns="http://www.w3.org/2000/svg">
<path d="M18 1.125C12.8858 1.125 9.39375 1.39125 7.2345 1.64325C5.0685 1.896 3.417 3.53775 3.1695 5.712C2.907 8.01975 2.625 11.9175 2.625 18C2.625 24.0825 2.90775 27.9802 3.1695 30.288C3.417 32.4622 5.0685 34.104 7.2345 34.3567C9.3945 34.6087 12.8858 34.875 18 34.875C23.1142 34.875 26.6063 34.6087 28.7648 34.3567C30.9315 34.104 32.583 32.4622 32.8297 30.288C33.0922 27.9802 33.375 24.0825 33.375 18C33.375 15.7223 33.3352 13.7505 33.2715 12.0547C33.2674 11.9388 33.2454 11.8242 33.2063 11.715C32.862 10.7617 31.8113 8.5845 28.764 5.61375C25.5308 2.46075 23.22 1.50375 22.3605 1.236C22.2635 1.20581 22.1628 1.18891 22.0613 1.18575C20.8403 1.14825 19.4888 1.125 18 1.125Z" fill="#0B5CFF"/>
<path d="M33.2475 11.862C31.3425 11.862 28.062 11.832 26.1832 11.6512C24.1357 11.4547 22.5263 9.8212 22.3253 7.72945C22.1595 5.9992 22.1265 3.10795 22.125 1.18945C22.2045 1.19695 22.2832 1.2127 22.3597 1.2367C23.22 1.5037 25.5308 2.4607 28.764 5.61445C31.8105 8.5852 32.862 10.7625 33.2055 11.7157C33.2228 11.7634 33.2368 11.8123 33.2475 11.862Z" fill="#93C5FD"/>
<path d="M20.8695 21.4545L20.6805 27.0165C20.6475 28.0027 19.9718 28.854 18.9893 28.9387C18.331 28.9955 17.669 28.9955 17.0108 28.9387C16.0283 28.8532 15.3525 28.0027 15.3188 27.0165L15.1305 21.4478C14.5448 21.4328 14.031 21.4148 13.581 21.3953C12.099 21.3278 11.4945 19.9328 12.486 18.8288C12.9986 18.2602 13.5238 17.7031 14.061 17.1578C15.3443 15.8498 16.326 15.0697 17.0055 14.61C17.7143 14.13 18.588 14.13 19.2975 14.61C19.977 15.069 20.9588 15.8498 22.242 17.1578C22.7787 17.7031 23.3034 18.2603 23.8155 18.8288C24.807 19.9328 24.2033 21.3277 22.7205 21.3945C22.1955 21.4185 21.582 21.4395 20.8695 21.4545Z" fill="#93C5FD"/>
</svg>
