<svg width="14" height="12" viewBox="0 0 14 12" fill="none" xmlns="http://www.w3.org/2000/svg">
<path d="M2.79981 0.399902C2.42856 0.399902 2.07251 0.547402 1.81 0.809953C1.54749 1.0725 1.40001 1.4286 1.40001 1.7999V4.0015L1.4832 3.9999H12.5152C12.5432 3.9999 12.5712 3.9999 12.5984 4.0015V3.3999C12.5984 3.0286 12.4509 2.6725 12.1884 2.40995C11.9259 2.1474 11.5698 1.9999 11.1986 1.9999H8.13023C8.10395 1.99995 8.07792 1.99482 8.05363 1.9848C8.02933 1.97477 8.00726 1.96006 7.98865 1.9415L6.85761 0.810302C6.59524 0.547709 6.23934 0.400088 5.86816 0.399902H2.79981ZM1.4832 5.1999C1.26409 5.19984 1.04803 5.25122 0.852397 5.34991C0.656766 5.44861 0.487032 5.59185 0.356853 5.76812C0.226674 5.94439 0.139686 6.14876 0.102889 6.36479C0.0660919 6.58082 0.080514 6.80247 0.144994 7.0119L1.25283 10.6119C1.34089 10.8979 1.51828 11.1482 1.75898 11.326C1.99967 11.5038 2.291 11.5998 2.59024 11.5999H11.4074C11.7067 11.6 11.9982 11.5041 12.2391 11.3263C12.4799 11.1484 12.6575 10.8981 12.7456 10.6119L13.8526 7.0119C13.9171 6.80253 13.9315 6.58095 13.8947 6.36499C13.858 6.14902 13.7711 5.94469 13.641 5.76844C13.5109 5.59219 13.3413 5.44893 13.1457 5.35018C12.9502 5.25144 12.7342 5.19997 12.5152 5.1999H1.4832Z" fill="#6B7280"/>
</svg>
