
<svg width="16" height="16" viewBox="0 0 16 16" fill="none" xmlns="http://www.w3.org/2000/svg">
<path fill-rule="evenodd" clip-rule="evenodd" d="M4.8001 8.00039C4.8001 8.42474 4.63153 8.8317 4.33147 9.13176C4.03141 9.43182 3.62444 9.60039 3.2001 9.60039C2.77575 9.60039 2.36879 9.43182 2.06873 9.13176C1.76867 8.8317 1.6001 8.42474 1.6001 8.00039C1.6001 7.57604 1.76867 7.16908 2.06873 6.86902C2.36879 6.56896 2.77575 6.40039 3.2001 6.40039C3.62444 6.40039 4.03141 6.56896 4.33147 6.86902C4.63153 7.16908 4.8001 7.57604 4.8001 8.00039ZM8.0001 9.60039C8.42444 9.60039 8.83141 9.43182 9.13147 9.13176C9.43153 8.8317 9.6001 8.42474 9.6001 8.00039C9.6001 7.57604 9.43153 7.16908 9.13147 6.86902C8.83141 6.56896 8.42444 6.40039 8.0001 6.40039C7.57575 6.40039 7.16879 6.56896 6.86873 6.86902C6.56867 7.16908 6.4001 7.57604 6.4001 8.00039C6.4001 8.42474 6.56867 8.8317 6.86873 9.13176C7.16879 9.43182 7.57575 9.60039 8.0001 9.60039ZM12.8001 9.60039C13.2244 9.60039 13.6314 9.43182 13.9315 9.13176C14.2315 8.8317 14.4001 8.42474 14.4001 8.00039C14.4001 7.57604 14.2315 7.16908 13.9315 6.86902C13.6314 6.56896 13.2244 6.40039 12.8001 6.40039C12.3758 6.40039 11.9688 6.56896 11.6687 6.86902C11.3687 7.16908 11.2001 7.57604 11.2001 8.00039C11.2001 8.42474 11.3687 8.8317 11.6687 9.13176C11.9688 9.43182 12.3758 9.60039 12.8001 9.60039Z" fill="#94A3B8"/>
</svg>
