<svg width="20" height="20" viewBox="0 0 20 20" fill="none" xmlns="http://www.w3.org/2000/svg">
<path d="M7.87772 5.519C9.04856 4.494 10.9483 4.494 12.1192 5.519C13.291 6.544 13.291 8.206 12.1192 9.231C11.9162 9.41 11.6892 9.557 11.4492 9.673C10.7043 10.034 9.99944 10.672 9.99944 11.5V12.25M18.9972 10C18.9972 11.1819 18.7645 12.3522 18.3122 13.4442C17.86 14.5361 17.1972 15.5282 16.3615 16.364C15.5259 17.1997 14.5339 17.8626 13.4421 18.3149C12.3503 18.7672 11.1802 19 9.99844 19C8.8167 19 7.64653 18.7672 6.55474 18.3149C5.46296 17.8626 4.47094 17.1997 3.63532 16.364C2.79971 15.5282 2.13686 14.5361 1.68463 13.4442C1.23239 12.3522 0.999634 11.1819 0.999634 10C0.999634 7.61305 1.94772 5.32387 3.63532 3.63604C5.32292 1.94821 7.61181 1 9.99844 1C12.3851 1 14.6739 1.94821 16.3615 3.63604C18.0492 5.32387 18.9972 7.61305 18.9972 10ZM9.99844 15.25H10.0064V15.258H9.99844V15.25Z" stroke="#0B5CFF" stroke-linecap="round" stroke-linejoin="round"/>
</svg>
