<svg width="16" height="16" viewBox="0 0 16 16" fill="none" xmlns="http://www.w3.org/2000/svg">
<path fill-rule="evenodd" clip-rule="evenodd" d="M2.92983 0.508718C3.05347 0.350212 3.21161 0.221986 3.39225 0.133791C3.57289 0.0455963 3.77126 -0.000244141 3.97228 -0.000244141C4.1733 -0.000244141 4.37167 0.0455963 4.55231 0.133791C4.73295 0.221986 4.8911 0.350212 5.01473 0.508718C5.21033 0.7584 5.34611 1.01499 5.45541 1.2221L5.51524 1.3337C5.63951 1.56383 5.76262 1.76288 5.97203 1.97344C6.1826 2.18285 6.3828 2.30597 6.61292 2.43023L6.72453 2.49006C6.93164 2.59937 7.18707 2.73514 7.43676 2.93075C8.11561 3.46463 8.11561 4.48177 7.43676 5.01565C7.18707 5.21125 6.93049 5.34702 6.72453 5.45633L6.61292 5.51616C6.3828 5.64043 6.1826 5.76354 5.97203 5.97295C5.78808 6.16169 5.63404 6.37743 5.51524 6.61269L5.45541 6.72545C5.34611 6.93256 5.21033 7.188 5.01473 7.43768C4.48085 8.11654 3.46372 8.11654 2.92983 7.43768C2.73423 7.188 2.59846 6.93141 2.48915 6.72545C2.46938 6.68777 2.44944 6.65019 2.42932 6.61269C2.31096 6.37716 2.15688 6.16137 1.97253 5.97295C1.78411 5.78862 1.56831 5.63454 1.33279 5.51616L1.22004 5.45633C0.969877 5.33177 0.73183 5.18424 0.508961 5.01565C0.350455 4.89202 0.222229 4.73387 0.134035 4.55323C0.0458404 4.37259 0 4.17422 0 3.9732C0 3.77218 0.0458404 3.57381 0.134035 3.39317C0.222229 3.21253 0.350455 3.05438 0.508961 2.93075C0.757492 2.73514 1.01293 2.59937 1.22004 2.49006L1.33279 2.43023C1.56292 2.30597 1.76197 2.18285 1.97253 1.97344C2.18194 1.76288 2.30506 1.56267 2.42932 1.3337L2.48915 1.22094C2.59846 1.01384 2.73423 0.7584 2.92983 0.508718ZM9.18913 5.63698C9.34402 5.43767 9.54241 5.27639 9.76914 5.16545C9.99586 5.05451 10.2449 4.99683 10.4974 4.99683C10.7498 4.99683 10.9989 5.05451 11.2256 5.16545C11.4523 5.27639 11.6507 5.43767 11.8056 5.63698C12.0725 5.97756 12.2566 6.32504 12.4154 6.6265L12.5063 6.79449C12.6916 7.13737 12.8837 7.45264 13.2139 7.78171C13.543 8.11193 13.8583 8.30409 14.2 8.48933L14.3703 8.57908C14.6695 8.73902 15.0181 8.92311 15.3575 9.19005C15.5568 9.34495 15.7181 9.54333 15.829 9.77006C15.94 9.99679 15.9977 10.2459 15.9977 10.4983C15.9977 10.7507 15.94 10.9998 15.829 11.2265C15.7181 11.4533 15.5568 11.6516 15.3575 11.8065C15.0479 12.0397 14.7174 12.2438 14.3703 12.4164L14.2 12.5073C13.8366 12.6906 13.5036 12.9289 13.2128 13.2137C12.9279 13.5045 12.6896 13.8375 12.5063 14.2009L12.4154 14.3701C12.243 14.718 12.0389 15.0492 11.8056 15.3596C11.6507 15.5589 11.4523 15.7202 11.2256 15.8311C10.9989 15.9421 10.7498 15.9998 10.4974 15.9998C10.2449 15.9998 9.99586 15.9421 9.76914 15.8311C9.54241 15.7202 9.34402 15.5589 9.18913 15.3596C8.95573 15.0493 8.75158 14.7181 8.57931 14.3701L8.48726 14.2009C8.30393 13.8375 8.06564 13.5045 7.78079 13.2137C7.49 12.9289 7.15701 12.6906 6.79357 12.5073C6.7377 12.4771 6.6817 12.4472 6.62558 12.4175C6.27764 12.2447 5.9464 12.0402 5.63606 11.8065C5.43675 11.6516 5.27547 11.4533 5.16453 11.2265C5.05359 10.9998 4.99591 10.7507 4.99591 10.4983C4.99591 10.2459 5.05359 9.99679 5.16453 9.77006C5.27547 9.54333 5.43675 9.34495 5.63606 9.19005C5.97664 8.92311 6.32412 8.73901 6.62558 8.58023L6.79357 8.48818C7.15701 8.30486 7.49 8.06656 7.78079 7.78171C8.06605 7.491 8.30473 7.15801 8.48841 6.79449L8.57815 6.62535C8.73809 6.32619 8.92219 5.97756 9.18913 5.63698Z" fill="#3B82F6"/>
</svg>
