<svg width="16" height="16" viewBox="0 0 16 16" fill="none" xmlns="http://www.w3.org/2000/svg">
<path d="M6.80668 4.49735L9.8609 7.39507C9.94773 7.48204 10.0165 7.58536 10.0631 7.69905C10.1098 7.81274 10.1335 7.93456 10.1328 8.05745C10.1321 8.18035 10.1071 8.30189 10.0591 8.41505C10.0112 8.52821 9.94129 8.63075 9.85348 8.71674L6.81261 11.607C6.70373 11.7006 6.56309 11.7487 6.41975 11.7415C6.27641 11.7343 6.1413 11.6723 6.04231 11.5684C5.94333 11.4645 5.88803 11.3265 5.88784 11.183C5.88765 11.0395 5.94257 10.9013 6.04127 10.7971L8.79288 8.18422C8.81116 8.16696 8.82571 8.14615 8.83566 8.12306C8.84561 8.09998 8.85074 8.07511 8.85074 8.04997C8.85074 8.02484 8.84561 7.99997 8.83566 7.97688C8.82571 7.9538 8.81116 7.93299 8.79288 7.91573L6.03905 5.30355C5.98611 5.2532 5.94361 5.19291 5.91397 5.12613C5.88434 5.05935 5.86814 4.98739 5.86632 4.91435C5.86449 4.84131 5.87707 4.76863 5.90334 4.70045C5.9296 4.63228 5.96904 4.56994 6.01939 4.51701C6.06975 4.46407 6.13003 4.42157 6.19681 4.39193C6.26359 4.3623 6.33556 4.3461 6.40859 4.34428C6.48163 4.34245 6.55431 4.35503 6.62249 4.3813C6.69067 4.40756 6.753 4.447 6.80594 4.49735H6.80668Z" fill="#9CA3AF"/>
</svg>
