<svg width="24" height="24" viewBox="0 0 24 24" fill="none" xmlns="http://www.w3.org/2000/svg">
<path d="M18.8 0H5.2C3.82087 0 2.49823 0.547856 1.52304 1.52304C0.547856 2.49823 0 3.82087 0 5.2L0 18.8C0 20.1791 0.547856 21.5018 1.52304 22.477C2.49823 23.4521 3.82087 24 5.2 24H18.8C20.1791 24 21.5018 23.4521 22.477 22.477C23.4521 21.5018 24 20.1791 24 18.8V5.2C24 3.82087 23.4521 2.49823 22.477 1.52304C21.5018 0.547856 20.1791 0 18.8 0ZM13 8.248C13.0001 8.06505 13.0669 7.88842 13.1879 7.75118C13.3089 7.61394 13.4757 7.52552 13.6572 7.50246C13.8387 7.47941 14.0224 7.52331 14.1739 7.62594C14.3253 7.72857 14.4341 7.88289 14.48 8.06C14.494 8.11325 14.525 8.16046 14.5683 8.19441C14.6117 8.22836 14.665 8.24718 14.72 8.248H15.752C15.8551 8.24047 15.9586 8.25427 16.0562 8.28855C16.1537 8.32282 16.2431 8.37684 16.3188 8.44722C16.3945 8.5176 16.4549 8.60283 16.4962 8.6976C16.5375 8.79237 16.5588 8.89463 16.5588 8.998C16.5588 9.10137 16.5375 9.20363 16.4962 9.2984C16.4549 9.39317 16.3945 9.4784 16.3188 9.54878C16.2431 9.61916 16.1537 9.67318 16.0562 9.70745C15.9586 9.74173 15.8551 9.75553 15.752 9.748H13.752C13.5526 9.748 13.3613 9.66877 13.2203 9.52774C13.0792 9.38672 13 9.19544 13 8.996V8.248ZM12 8.248V11.248C12 11.4474 11.9208 11.6387 11.7797 11.7797C11.6387 11.9208 11.4474 12 11.248 12H8.248C8.14925 12 8.05146 11.9805 7.96022 11.9428C7.86899 11.905 7.78609 11.8496 7.71626 11.7797C7.64643 11.7099 7.59103 11.627 7.55324 11.5358C7.51545 11.4445 7.496 11.3468 7.496 11.248V8.248C7.496 8.04856 7.57523 7.85728 7.71626 7.71626C7.85728 7.57523 8.04856 7.496 8.248 7.496H11.248C11.4474 7.496 11.6387 7.57523 11.7797 7.71626C11.9208 7.85728 12 8.04856 12 8.248ZM4.8 5.552C4.8 5.45325 4.81945 5.35546 4.85724 5.26422C4.89503 5.17299 4.95043 5.09009 5.02026 5.02026C5.09009 4.95043 5.17299 4.89503 5.26422 4.85724C5.35546 4.81945 5.45325 4.8 5.552 4.8H8.052C8.1551 4.79247 8.25864 4.80627 8.35616 4.84055C8.45369 4.87482 8.5431 4.92884 8.61881 4.99922C8.69452 5.0696 8.75491 5.15483 8.7962 5.2496C8.8375 5.34437 8.85881 5.44663 8.85881 5.55C8.85881 5.65337 8.8375 5.75563 8.7962 5.8504C8.75491 5.94517 8.69452 6.0304 8.61881 6.10078C8.5431 6.17116 8.45369 6.22518 8.35616 6.25945C8.25864 6.29373 8.1551 6.30753 8.052 6.3H6.552C6.48517 6.3 6.42107 6.32655 6.37381 6.37381C6.32655 6.42107 6.3 6.48517 6.3 6.552V8.052C6.30753 8.1551 6.29373 8.25864 6.25945 8.35616C6.22518 8.45369 6.17116 8.5431 6.10078 8.61881C6.0304 8.69452 5.94517 8.75491 5.8504 8.7962C5.75563 8.8375 5.65337 8.85881 5.55 8.85881C5.44663 8.85881 5.34437 8.8375 5.2496 8.7962C5.15483 8.75491 5.0696 8.69452 4.99922 8.61881C4.92884 8.5431 4.87482 8.45369 4.84055 8.35616C4.80627 8.25864 4.79247 8.1551 4.8 8.052V5.552ZM8.052 19.2H5.552C5.35256 19.2 5.16128 19.1208 5.02026 18.9797C4.87923 18.8387 4.8 18.6474 4.8 18.448V15.948C4.79247 15.8449 4.80627 15.7414 4.84055 15.6438C4.87482 15.5463 4.92884 15.4569 4.99922 15.3812C5.0696 15.3055 5.15483 15.2451 5.2496 15.2038C5.34437 15.1625 5.44663 15.1412 5.55 15.1412C5.65337 15.1412 5.75563 15.1625 5.8504 15.2038C5.94517 15.2451 6.0304 15.3055 6.10078 15.3812C6.17116 15.4569 6.22518 15.5463 6.25945 15.6438C6.29373 15.7414 6.30753 15.8449 6.3 15.948V17.448C6.3 17.5148 6.32655 17.5789 6.37381 17.6262C6.42107 17.6734 6.48517 17.7 6.552 17.7H8.052C8.1551 17.6925 8.25864 17.7063 8.35616 17.7405C8.45369 17.7748 8.5431 17.8288 8.61881 17.8992C8.69452 17.9696 8.75491 18.0548 8.7962 18.1496C8.8375 18.2444 8.85881 18.3466 8.85881 18.45C8.85881 18.5534 8.8375 18.6556 8.7962 18.7504C8.75491 18.8452 8.69452 18.9304 8.61881 19.0008C8.5431 19.0712 8.45369 19.1252 8.35616 19.1595C8.25864 19.1937 8.1551 19.2075 8.052 19.2ZM8.996 16.504H8.248C8.04856 16.504 7.85728 16.4248 7.71626 16.2837C7.57523 16.1427 7.496 15.9514 7.496 15.752V13.752C7.48847 13.6489 7.50227 13.5454 7.53655 13.4478C7.57082 13.3503 7.62484 13.2609 7.69522 13.1852C7.7656 13.1095 7.85083 13.0491 7.9456 13.0078C8.04037 12.9665 8.14263 12.9452 8.246 12.9452C8.34937 12.9452 8.45163 12.9665 8.5464 13.0078C8.64117 13.0491 8.7264 13.1095 8.79678 13.1852C8.86716 13.2609 8.92118 13.3503 8.95545 13.4478C8.98973 13.5454 9.00353 13.6489 8.996 13.752V14.8C8.99682 14.855 9.01564 14.9083 9.04959 14.9517C9.08354 14.995 9.13075 15.026 9.184 15.04C9.36111 15.0859 9.51543 15.1947 9.61806 15.3461C9.72069 15.4976 9.76459 15.6813 9.74154 15.8628C9.71848 16.0443 9.63006 16.2111 9.49282 16.3321C9.35558 16.4531 9.17895 16.5199 8.996 16.52V16.504ZM12.252 15.752C12.252 15.9514 12.1728 16.1427 12.0317 16.2837C11.8907 16.4248 11.6994 16.504 11.5 16.504C11.3006 16.504 11.1093 16.4248 10.9683 16.2837C10.8272 16.1427 10.748 15.9514 10.748 15.752V13.752C10.748 13.5526 10.8272 13.3613 10.9683 13.2203C11.1093 13.0792 11.3006 13 11.5 13C11.6994 13 11.8907 13.0792 12.0317 13.2203C12.1728 13.3613 12.252 13.5526 12.252 13.752V15.752ZM13 11.5C13 11.4012 13.0195 11.3035 13.0572 11.2122C13.095 11.121 13.1504 11.0381 13.2203 10.9683C13.2901 10.8984 13.373 10.843 13.4642 10.8052C13.5555 10.7675 13.6532 10.748 13.752 10.748H15.752C15.9514 10.748 16.1427 10.8272 16.2837 10.9683C16.4248 11.1093 16.504 11.3006 16.504 11.5V12.752C16.4902 12.9415 16.4051 13.1186 16.266 13.248C16.1269 13.3773 15.944 13.4492 15.754 13.4492C15.564 13.4492 15.3811 13.3773 15.242 13.248C15.1029 13.1186 15.0178 12.9415 15.004 12.752V12.5C15.0029 12.4339 14.9759 12.3708 14.9288 12.3244C14.8816 12.278 14.8181 12.252 14.752 12.252H13.752C13.5526 12.252 13.3613 12.1728 13.2203 12.0317C13.0792 11.8907 13 11.6994 13 11.5ZM13.252 15.752V14.5C13.2658 14.3105 13.3509 14.1334 13.49 14.004C13.6291 13.8747 13.812 13.8028 14.002 13.8028C14.192 13.8028 14.3749 13.8747 14.514 14.004C14.6531 14.1334 14.7382 14.3105 14.752 14.5V14.752C14.752 14.8188 14.7786 14.8829 14.8258 14.9302C14.8731 14.9775 14.9372 15.004 15.004 15.004H15.752C15.8551 14.9965 15.9586 15.0103 16.0562 15.0445C16.1537 15.0788 16.2431 15.1328 16.3188 15.2032C16.3945 15.2736 16.4549 15.3588 16.4962 15.4536C16.5375 15.5484 16.5588 15.6506 16.5588 15.754C16.5588 15.8574 16.5375 15.9596 16.4962 16.0544C16.4549 16.1492 16.3945 16.2344 16.3188 16.3048C16.2431 16.3752 16.1537 16.4292 16.0562 16.4635C15.9586 16.4977 15.8551 16.5115 15.752 16.504H14C13.8013 16.5029 13.611 16.4232 13.4708 16.2823C13.3307 16.1414 13.252 15.9508 13.252 15.752ZM19.2 18.448C19.2 18.6474 19.1208 18.8387 18.9797 18.9797C18.8387 19.1208 18.6474 19.2 18.448 19.2H15.948C15.8449 19.2075 15.7414 19.1937 15.6438 19.1595C15.5463 19.1252 15.4569 19.0712 15.3812 19.0008C15.3055 18.9304 15.2451 18.8452 15.2038 18.7504C15.1625 18.6556 15.1412 18.5534 15.1412 18.45C15.1412 18.3466 15.1625 18.2444 15.2038 18.1496C15.2451 18.0548 15.3055 17.9696 15.3812 17.8992C15.4569 17.8288 15.5463 17.7748 15.6438 17.7405C15.7414 17.7063 15.8449 17.6925 15.948 17.7H17.448C17.5148 17.7 17.5789 17.6734 17.6262 17.6262C17.6734 17.5789 17.7 17.5148 17.7 17.448V15.948C17.6925 15.8449 17.7063 15.7414 17.7405 15.6438C17.7748 15.5463 17.8288 15.4569 17.8992 15.3812C17.9696 15.3055 18.0548 15.2451 18.1496 15.2038C18.2444 15.1625 18.3466 15.1412 18.45 15.1412C18.5534 15.1412 18.6556 15.1625 18.7504 15.2038C18.8452 15.2451 18.9304 15.3055 19.0008 15.3812C19.0712 15.4569 19.1252 15.5463 19.1595 15.6438C19.1937 15.7414 19.2075 15.8449 19.2 15.948V18.448ZM19.2 8.048C19.2075 8.1511 19.1937 8.25464 19.1595 8.35216C19.1252 8.44969 19.0712 8.5391 19.0008 8.61481C18.9304 8.69052 18.8452 8.75091 18.7504 8.7922C18.6556 8.8335 18.5534 8.85481 18.45 8.85481C18.3466 8.85481 18.2444 8.8335 18.1496 8.7922C18.0548 8.75091 17.9696 8.69052 17.8992 8.61481C17.8288 8.5391 17.7748 8.44969 17.7405 8.35216C17.7063 8.25464 17.6925 8.1511 17.7 8.048V6.552C17.7 6.48517 17.6734 6.42107 17.6262 6.37381C17.5789 6.32655 17.5148 6.3 17.448 6.3H15.948C15.8449 6.30753 15.7414 6.29373 15.6438 6.25945C15.5463 6.22518 15.4569 6.17116 15.3812 6.10078C15.3055 6.0304 15.2451 5.94517 15.2038 5.8504C15.1625 5.75563 15.1412 5.65337 15.1412 5.55C15.1412 5.44663 15.1625 5.34437 15.2038 5.2496C15.2451 5.15483 15.3055 5.0696 15.3812 4.99922C15.4569 4.92884 15.5463 4.87482 15.6438 4.84055C15.7414 4.80627 15.8449 4.79247 15.948 4.8H18.448C18.5468 4.8 18.6445 4.81945 18.7358 4.85724C18.827 4.89503 18.9099 4.95043 18.9797 5.02026C19.0496 5.09009 19.105 5.17299 19.1428 5.26422C19.1805 5.35546 19.2 5.45325 19.2 5.552V8.048Z" fill="#0B5CFF"/>
</svg>
