
<svg width="10" height="10" viewBox="0 0 10 10" fill="none" xmlns="http://www.w3.org/2000/svg">
<path fill-rule="evenodd" clip-rule="evenodd" d="M3.75026 6.24982C2.36954 6.24982 1.25009 5.13036 1.25009 3.74964C1.25009 2.36892 2.36954 1.24946 3.75026 1.24946C5.13099 1.24946 6.25044 2.36892 6.25044 3.74964C6.25044 5.13036 5.13099 6.24982 3.75026 6.24982ZM9.69068 8.50998L7.32177 6.49546C7.07675 6.27482 6.81486 6.17419 6.60359 6.18356C7.16301 5.52851 7.50053 4.67908 7.50053 3.75026C7.50053 1.67887 5.82166 0 3.75026 0C1.67887 0 0 1.67887 0 3.75026C0 5.82166 1.67887 7.50053 3.75026 7.50053C4.67908 7.50053 5.52851 7.16301 6.18356 6.60359C6.17356 6.81486 6.27482 7.07675 6.49546 7.32177L8.50998 9.69068C8.855 10.0738 9.41817 10.1063 9.76194 9.76256C10.1057 9.41879 10.0732 8.855 9.69006 8.5106L9.69068 8.50998Z" fill="#ADB5BD"/>
</svg>
