<svg width="24" height="24" viewBox="0 0 24 24" fill="none" xmlns="http://www.w3.org/2000/svg">
<path fill-rule="evenodd" clip-rule="evenodd" d="M4.06785 22.9781C5.70365 23.111 8.2993 23.25 12 23.25C15.7007 23.25 18.2964 23.111 19.9321 22.9781C21.576 22.8445 22.8445 21.5761 22.9781 19.9321C23.111 18.2964 23.25 15.7007 23.25 12C23.25 8.2993 23.111 5.70365 22.9781 4.06785C22.8445 2.42393 21.576 1.15551 19.9321 1.02194C18.2964 0.88904 15.7007 0.75 12 0.75C8.2993 0.75 5.70365 0.889035 4.06785 1.02194C2.42392 1.15551 1.15551 2.42392 1.02194 4.06785C0.88904 5.70365 0.75 8.2993 0.75 12C0.75 15.7007 0.88904 18.2964 1.02194 19.9321C1.15551 21.576 2.42393 22.8445 4.06785 22.9781ZM6.78965 5.07905C6.03285 4.8144 5.35085 5.5238 5.6393 6.2719C6.25195 7.86085 6.90065 9.29315 7.2977 10.1373C7.5363 10.6446 7.9855 11.0162 8.5245 11.1702L11.4285 12L8.5245 12.8298C7.9855 12.9838 7.5363 13.3554 7.2977 13.8628C6.90065 14.7069 6.25195 16.1391 5.6393 17.7281C5.35085 18.4762 6.03285 19.1856 6.78965 18.9209C9.27055 18.0535 13.9533 16.1863 18.4022 13.1513C19.2205 12.5931 19.2205 11.4069 18.4022 10.8487C13.9533 7.8137 9.27055 5.9465 6.78965 5.07905Z" fill="#0B5CFF"/>
</svg>
