<svg width="16" height="16" viewBox="0 0 16 16" fill="none" xmlns="http://www.w3.org/2000/svg">
<path fill-rule="evenodd" clip-rule="evenodd" d="M3.01709 3.02005C4.19909 1.83903 5.90409 1.24902 7.99609 1.24902C10.0881 1.24902 11.7931 1.83903 12.9751 3.02005C14.1561 4.20206 14.7461 5.90708 14.7461 7.99911C14.7461 10.0911 14.1561 11.7962 12.9751 12.9782C11.7931 14.1592 10.0881 14.7492 7.99609 14.7492C5.90409 14.7492 4.19909 14.1592 3.01709 12.9782C1.83609 11.7962 1.24609 10.0911 1.24609 7.99911C1.24609 5.90708 1.83609 4.20206 3.01709 3.02005ZM10.9161 5.96208C11.0389 5.85069 11.1124 5.69508 11.1205 5.52948C11.1285 5.36389 11.0705 5.20187 10.9591 5.07907C10.8477 4.95627 10.6921 4.88276 10.5265 4.87469C10.3609 4.86663 10.1989 4.92468 10.0761 5.03607C9.24609 5.79008 8.62109 6.46709 8.09609 7.2891C7.71209 7.88811 7.38909 8.54912 7.07309 9.35113L5.94509 8.18911C5.82972 8.07003 5.67178 8.00165 5.50599 7.99903C5.34021 7.9964 5.18018 8.05974 5.06109 8.17511C4.94201 8.29048 4.87364 8.44843 4.87101 8.61422C4.86839 8.78 4.93172 8.94004 5.04709 9.05912L6.86609 10.9341C6.94034 11.011 7.03304 11.0675 7.13533 11.0982C7.23763 11.129 7.34611 11.1331 7.45042 11.11C7.55473 11.0869 7.65138 11.0375 7.73115 10.9665C7.81093 10.8954 7.87116 10.8051 7.90609 10.7041C8.32609 9.49713 8.69909 8.66412 9.14809 7.96411C9.59509 7.2661 10.1341 6.67209 10.9171 5.96208H10.9161Z" fill="#22C55E"/>
</svg>
