<svg width="24" height="24" viewBox="0 0 24 24" fill="none" xmlns="http://www.w3.org/2000/svg">
<path d="M14.7412 9.00003L14.3953 18M9.60791 18L9.26195 9.00003M19.2286 5.79003C19.5706 5.84203 19.9105 5.89703 20.2505 5.95603M19.2286 5.79003L18.1608 19.673C18.1172 20.2383 17.8619 20.7662 17.4459 21.1513C17.0299 21.5364 16.4839 21.7502 15.9171 21.75H8.08611C7.51928 21.7502 6.97328 21.5364 6.55729 21.1513C6.1413 20.7662 5.88599 20.2383 5.84241 19.673L4.77455 5.79003M19.2286 5.79003C18.0746 5.61555 16.9147 5.48313 15.7511 5.39303M4.77455 5.79003C4.43259 5.84103 4.09264 5.89603 3.75269 5.95503M4.77455 5.79003C5.92853 5.61555 7.08848 5.48313 8.25209 5.39303M15.7511 5.39303V4.47703C15.7511 3.29703 14.8412 2.31303 13.6614 2.27603C12.5551 2.24067 11.448 2.24067 10.3418 2.27603C9.16197 2.31303 8.25209 3.29803 8.25209 4.47703V5.39303M15.7511 5.39303C13.2551 5.20011 10.748 5.20011 8.25209 5.39303" stroke="black" stroke-width="1.5" stroke-linecap="round" stroke-linejoin="round"/>
</svg>
