<svg width="16" height="16" viewBox="0 0 16 16" fill="none" xmlns="http://www.w3.org/2000/svg">
<path d="M9.82667 5.99899L9.596 11.9998M6.404 11.9998L6.17333 5.99899M12.8187 3.85871C13.0467 3.89338 13.2733 3.93005 13.5 3.96939M12.8187 3.85871L12.1067 13.1153C12.0776 13.4921 11.9074 13.8441 11.63 14.1009C11.3527 14.3577 10.9886 14.5002 10.6107 14.5001H5.38933C5.0114 14.5002 4.64735 14.3577 4.36999 14.1009C4.09262 13.8441 3.92239 13.4921 3.89333 13.1153L3.18133 3.85871M12.8187 3.85871C12.0492 3.74237 11.2758 3.65408 10.5 3.59401M3.18133 3.85871C2.95333 3.89271 2.72667 3.92938 2.5 3.96872M3.18133 3.85871C3.95076 3.74237 4.72416 3.65408 5.5 3.59401M10.5 3.59401V2.98326C10.5 2.19649 9.89333 1.5404 9.10667 1.51573C8.36908 1.49215 7.63092 1.49215 6.89333 1.51573C6.10667 1.5404 5.5 2.19715 5.5 2.98326V3.59401M10.5 3.59401C8.83581 3.46537 7.16419 3.46537 5.5 3.59401" stroke="#0B5CFF" stroke-linecap="round" stroke-linejoin="round"/>
</svg>
