<svg width="24" height="24" viewBox="0 0 24 24" fill="none" xmlns="http://www.w3.org/2000/svg">
<path fill-rule="evenodd" clip-rule="evenodd" d="M4.39768 0.762711C4.58313 0.524952 4.82035 0.332612 5.09131 0.20032C5.36227 0.0680283 5.65983 -0.000732422 5.96135 -0.000732422C6.26288 -0.000732422 6.56044 0.0680283 6.8314 0.20032C7.10236 0.332612 7.33958 0.524952 7.52503 0.762711C7.81843 1.13723 8.02209 1.52211 8.18605 1.83278L8.2758 2.00019C8.46219 2.34537 8.64687 2.64395 8.96098 2.9598C9.27682 3.27391 9.57713 3.45859 9.92231 3.64498L10.0897 3.73473C10.4004 3.89869 10.7835 4.10235 11.1581 4.39576C12.1763 5.19658 12.1763 6.72228 11.1581 7.52311C10.7835 7.81651 10.3987 8.02017 10.0897 8.18413L9.92231 8.27388C9.57713 8.46028 9.27682 8.64495 8.96098 8.95907C8.68505 9.24218 8.45399 9.56578 8.2758 9.91867L8.18605 10.0878C8.02209 10.3985 7.81843 10.7816 7.52503 11.1562C6.7242 12.1744 5.1985 12.1744 4.39768 11.1562C4.10428 10.7816 3.90062 10.3968 3.73666 10.0878C3.70701 10.0313 3.67709 9.97491 3.64691 9.91867C3.46937 9.56538 3.23825 9.24168 2.96173 8.95907C2.67909 8.68257 2.3554 8.45144 2.00212 8.27388L1.83298 8.18413C1.45775 7.99729 1.10067 7.776 0.766372 7.52311C0.528613 7.33766 0.336274 7.10044 0.203982 6.82948C0.0716902 6.55852 0.00292969 6.26096 0.00292969 5.95943C0.00292969 5.6579 0.0716902 5.36034 0.203982 5.08938C0.336274 4.81842 0.528613 4.5812 0.766372 4.39576C1.13917 4.10235 1.52232 3.89869 1.83298 3.73473L2.00212 3.64498C2.3473 3.45859 2.64589 3.27391 2.96173 2.9598C3.27584 2.64395 3.46051 2.34365 3.64691 2.00019L3.73666 1.83105C3.90062 1.52039 4.10428 1.13723 4.39768 0.762711ZM13.7866 8.4551C14.019 8.15614 14.3165 7.91422 14.6566 7.74781C14.9967 7.58139 15.3703 7.49488 15.749 7.49488C16.1276 7.49488 16.5012 7.58139 16.8413 7.74781C17.1814 7.91422 17.479 8.15614 17.7113 8.4551C18.1117 8.96597 18.3879 9.48719 18.6261 9.93938L18.7624 10.1914C19.0403 10.7057 19.3285 11.1786 19.8238 11.6722C20.3175 12.1675 20.7904 12.4558 21.3029 12.7336L21.5584 12.8683C22.0071 13.1082 22.5301 13.3843 23.0392 13.7847C23.3382 14.0171 23.5801 14.3146 23.7465 14.6547C23.9129 14.9948 23.9994 15.3684 23.9994 15.7471C23.9994 16.1257 23.9129 16.4993 23.7465 16.8394C23.5801 17.1795 23.3382 17.4771 23.0392 17.7094C22.5747 18.0591 22.079 18.3653 21.5584 18.6242L21.3029 18.7605C20.7578 19.0355 20.2583 19.3929 19.8221 19.8202C19.3948 20.2564 19.0374 20.7559 18.7624 21.3011L18.6261 21.5548C18.3674 22.0766 18.0612 22.5735 17.7113 23.0391C17.479 23.338 17.1814 23.5799 16.8413 23.7463C16.5012 23.9128 16.1276 23.9993 15.749 23.9993C15.3703 23.9993 14.9967 23.9128 14.6566 23.7463C14.3165 23.5799 14.019 23.338 13.7866 23.0391C13.4365 22.5736 13.1303 22.0767 12.8719 21.5548L12.7338 21.3011C12.4588 20.7559 12.1014 20.2564 11.6741 19.8202C11.2379 19.3929 10.7384 19.0355 10.1933 18.7605C10.1095 18.7153 10.0255 18.6704 9.9413 18.6259C9.41939 18.3667 8.92253 18.0599 8.45702 17.7094C8.15806 17.4771 7.91614 17.1795 7.74973 16.8394C7.58331 16.4993 7.4968 16.1257 7.4968 15.7471C7.4968 15.3684 7.58331 14.9948 7.74973 14.6547C7.91614 14.3146 8.15806 14.0171 8.45702 13.7847C8.96789 13.3843 9.48911 13.1082 9.9413 12.87L10.1933 12.7319C10.7384 12.4569 11.2379 12.0995 11.6741 11.6722C12.102 11.2361 12.46 10.7366 12.7355 10.1914L12.8702 9.93766C13.1101 9.48892 13.3862 8.96597 13.7866 8.4551Z" fill="white"/>
</svg>
