<svg width="38" height="38" viewBox="0 0 38 38" fill="none" xmlns="http://www.w3.org/2000/svg">
<path fill-rule="evenodd" clip-rule="evenodd" d="M2.41791 7.01937C2.21703 9.48966 2.00708 13.4107 2.00708 19C2.00708 24.5893 2.21703 28.5103 2.41791 30.9806C2.61955 33.4637 4.53552 35.3797 7.01864 35.5814C9.48968 35.7822 13.41 35.9922 18.9993 35.9922C24.5893 35.9922 28.5096 35.7822 30.9799 35.5814C33.463 35.3797 35.379 33.4637 35.5806 30.9806C35.7815 28.5103 35.9915 24.5893 35.9915 19C35.9915 13.4107 35.7815 9.48966 35.5806 7.01937C35.379 4.53625 33.463 2.62029 30.9806 2.41865C28.5096 2.21776 24.5893 2.00781 18.9993 2.00781C13.41 2.00781 9.48968 2.21776 7.01864 2.41865C4.53552 2.62029 2.61955 4.53625 2.41791 7.01937ZM25.0409 15.224C25.0415 16.2409 24.7852 17.2415 24.2958 18.133C23.8064 19.0244 23.0997 19.7778 22.2414 20.3231C25.0409 21.3427 27.2016 23.643 27.9734 26.4947C28.2392 27.4772 27.6751 28.53 26.6593 28.5972C24.8997 28.7135 22.3773 28.8177 18.9993 28.8177C15.6212 28.8177 13.0996 28.7135 11.3392 28.5972C10.3242 28.5292 9.7608 27.478 10.0259 26.4962C10.7977 23.6438 12.9584 21.3427 15.7579 20.3231C14.8722 19.76 14.1484 18.9759 13.6579 18.048C13.1674 17.1201 12.9271 16.0804 12.9607 15.0313C12.9943 13.9823 13.3005 12.9601 13.8494 12.0654C14.3982 11.1708 15.1706 10.4345 16.0905 9.92919C17.0104 9.42387 18.0462 9.16693 19.0956 9.18366C20.145 9.2004 21.172 9.49024 22.0754 10.0246C22.9787 10.559 23.7273 11.3195 24.2473 12.2312C24.7673 13.1429 25.0408 14.1744 25.0409 15.224Z" fill="#0B5CFF"/>
</svg>
