<svg width="16" height="16" viewBox="0 0 16 16" fill="none" xmlns="http://www.w3.org/2000/svg">
<path fill-rule="evenodd" clip-rule="evenodd" d="M2.85612 2.83464C4.0819 1.6099 5.85005 0.998047 8.01953 0.998047C10.189 0.998047 11.9572 1.6099 13.1829 2.83464C14.4077 4.06042 15.0195 5.82857 15.0195 7.99805C15.0195 10.1675 14.4077 11.9357 13.1829 13.1615C11.9572 14.3862 10.189 14.998 8.01953 14.998C5.85005 14.998 4.0819 14.3862 2.85612 13.1615C1.63138 11.9357 1.01953 10.1675 1.01953 7.99805C1.01953 5.82857 1.63138 4.06042 2.85612 2.83464ZM8.01953 4.03242C8.22581 4.03242 8.42364 4.11436 8.5695 4.26022C8.71536 4.40608 8.79731 4.60392 8.79731 4.81019V8.1702C8.79731 8.37647 8.71536 8.57431 8.5695 8.72017C8.42364 8.86603 8.22581 8.94797 8.01953 8.94797C7.81325 8.94797 7.61542 8.86603 7.46956 8.72017C7.3237 8.57431 7.24175 8.37647 7.24175 8.1702V4.81019C7.24175 4.60392 7.3237 4.40608 7.46956 4.26022C7.61542 4.11436 7.81325 4.03242 8.01953 4.03242ZM8.01953 9.79938C8.22581 9.79938 8.42364 9.88132 8.5695 10.0272C8.71536 10.173 8.79731 10.3709 8.79731 10.5772V11.1859C8.79731 11.3922 8.71536 11.59 8.5695 11.7359C8.42364 11.8817 8.22581 11.9637 8.01953 11.9637C7.81325 11.9637 7.61542 11.8817 7.46956 11.7359C7.3237 11.59 7.24175 11.3922 7.24175 11.1859V10.5772C7.24175 10.3709 7.3237 10.173 7.46956 10.0272C7.61542 9.88132 7.81325 9.79938 8.01953 9.79938Z" fill="#EAB308"/>
</svg>
