<svg width="12" height="12" viewBox="0 0 12 12" fill="none" xmlns="http://www.w3.org/2000/svg">
<path fill-rule="evenodd" clip-rule="evenodd" d="M2.12886 2.12549C3.04913 1.20694 4.3766 0.748047 6.00538 0.748047C7.63416 0.748047 8.96163 1.20694 9.8819 2.12549C10.8014 3.04482 11.2608 4.37094 11.2608 5.99805C11.2608 7.62516 10.8014 8.95127 9.8819 9.8706C8.96163 10.7892 7.63416 11.248 6.00538 11.248C4.3766 11.248 3.04913 10.7892 2.12886 9.8706C1.20936 8.95127 0.75 7.62516 0.75 5.99805C0.75 4.37094 1.20936 3.04482 2.12886 2.12549ZM6.00538 3.02382C6.16025 3.02382 6.30877 3.08528 6.41828 3.19468C6.52779 3.30408 6.58931 3.45245 6.58931 3.60716V6.12716C6.58931 6.28187 6.52779 6.43024 6.41828 6.53964C6.30877 6.64903 6.16025 6.71049 6.00538 6.71049C5.85051 6.71049 5.70199 6.64903 5.59248 6.53964C5.48297 6.43024 5.42145 6.28187 5.42145 6.12716V3.60716C5.42145 3.45245 5.48297 3.30408 5.59248 3.19468C5.70199 3.08528 5.85051 3.02382 6.00538 3.02382ZM6.00538 7.34905C6.16025 7.34905 6.30877 7.4105 6.41828 7.5199C6.52779 7.6293 6.58931 7.77767 6.58931 7.93238V8.38894C6.58931 8.54364 6.52779 8.69202 6.41828 8.80141C6.30877 8.91081 6.16025 8.97227 6.00538 8.97227C5.85051 8.97227 5.70199 8.91081 5.59248 8.80141C5.48297 8.69202 5.42145 8.54364 5.42145 8.38894V7.93238C5.42145 7.77767 5.48297 7.6293 5.59248 7.5199C5.70199 7.4105 5.85051 7.34905 6.00538 7.34905Z" fill="#EF4444"/>
</svg>
